<mxfile host="app.diagrams.net" agent="Mozilla/5.0 (Windows NT 10.0; Win64; x64) AppleWebKit/537.36 (KHTML, like Gecko) Chrome/136.0.0.0 Safari/537.36 Edg/136.0.0.0" version="27.0.2">
  <diagram name="边缘计算架构图" id="7OWY0Qt5w6W1VSvHQvYM">
    <mxGraphModel dx="4402" dy="1003" grid="1" gridSize="10" guides="1" tooltips="1" connect="1" arrows="1" fold="1" page="1" pageScale="1" pageWidth="827" pageHeight="1169" math="0" shadow="0">
      <root>
        <mxCell id="0" />
        <mxCell id="1" parent="0" />
        <mxCell id="XKiLcq2Avilo9yYhWQPy-85" value="" style="shape=image;verticalLabelPosition=bottom;labelBackgroundColor=default;verticalAlign=top;aspect=fixed;imageAspect=0;image=data:image/png,iVBORw0KGgoAAAANSUhEUgAAAGQAAABkCAYAAABw4pVUAAAAAXNSR0IArs4c6QAABi1JREFUeAHtnWloJEUUx9cbUVQ88FjvA1QUPEEQDxA8EVRYxPtCBXHVD4pfVxEvED+Ix+oHFRUlCH5QY7qq4+B6gG4UVFbU6Xo1MRtdUUFX3Uy/qljyJiZOJpPJTHdNT3fPCyyTo6vqvd+/X1V1db3aVav4iwkwASbABJgAE2ACTIAJMAEmwASYABNgAkyACTABJsAEmAATYAJMgAkwASaQCwLrnNv+PT1zeBDhqUKbc+hzvFo/asS5HXJh4DAYIVV8ogTzkNDmY6FwRoJxS/9hLMB8JpR5TCg8bRi4ZOqjc267UNvLBJhPl8JvJ8ji3wVgvhTKXkURlanhZWxM1uLjQmU+SCJEaxmKGlnDk8vIKROfpMKbpMK/W8Gm+xnjUONdmThQpkYEmAfTgV/cbS2tyz7FXViXd0yozANLAa4EOMHftX2mS5OG9zIB9rpMxFiYneHadrSDLW43qewVAvAlCWajjMy0BIylin+UynwuNb4WanulVG7PduVL8buxqH60APwzY0Hi5oGeAAttHpYK/+rODqxLZZ6sfOf2LYUIzU4IFY92ByFB97QQEW3LbqTxZG5qjb8mswF/p+hu9qfQ30ttLkgGoi3gNg+Lna8TCl+XCmc92PB4KVYKQo3jHmD0LEQ/2hRgnih0dNB6lFD4Tz/gDKxOhTcXVhQJ5r6Bges8tiSOOKFwW6XqDi6kKAMczBMD7+4GsuuLKQjglu4c7Dww560OAWgq2h1QKFFGq26PvIH0aU8IeFuhBKEB3SeA/NUVv1MoQQIdH5s/iP66xlChLpQg4+AOK7MgtP5FL9gKIwot4pXuGaRlKk3jZCEEGa26XYIoPkFA0vUjf11Lv6JUAKLU5txQ2WvohZtQ9mLyOTfvYiYm3E70fjsEMyIBt/YLRN7rDVT8kwS7Xmg8aSDRQ/2oALtGgvk+77AytU/hbAj4yljNHZiZMI1nDR2/m6mjLf143tsWymwOFZ7ed1HCyfqRQplNeQeSB/to/SsEc1bfRBmbcntLsNU8OFsUG2iCQ7svvYtCg7dU+H5RQOTJTgFY8S6IBHNvnpwsnC3KXuJNlIp2e5X52SIjcT/0JohUZl1GRvf5fcYAHzwb02G3vxdRZGS+YUHSixlqe0NqQYSqH8NipBeDGNIOztSCSMBbWRBPgoB9Ib0gPH54G9dCZV9ML0hkn+cI8RMhlCmWWpAA8OVsBEFvd2I29vYuUqjx9tSChMo8mlcHi2ZXUJs5IrUgQuPdRXO8s72DiUTKi0wtBlVAb8c6O9h76A5jfULjjV4EoZ3fAvCXYYTo0eevvO6g/y/rqPSDrkcBFljROxHvufWN5H6Fth8Gl7nOxu4bZa/20lW1VkIPNWWG59s3OpVCgL22laO3n8en3GoJ+LNvw8tYX2YHGojInCkB62WEuJJPIoq3ScA/lr1urkvfQJm8me5spD1YjXTigu0CWRZkl37QXT+yye0slDkvVHgHHYRAqW5S4z20HWq06vbz1h31WhFFiihpDsjywtmne+WU6fVSuUMl4Btl38c7L5AAc36mgJM2RnPsAMyb/g+VydEKQGSmqbtKymgg5T6ZcrsGYC+V2jxCkRMASqniQAK+KqJip7iFgLcMBGq/GpUQvz0f+kX7DMFMeF326BfkXuqVgGuzFcLPmVw0cQkid0gvvhbiWpoAZDv4z96ZdhZI5TPZLD0oBSWYDVlECe06pwG4cROA+SJJm9RNlTIymsWXGs/IJEqajsCgrCYJ9vq5s7G6mLVFZprSnisVt2Oz7aX9XirzVpI7tocyX7cbgCliQm0uFMo+t+jwsshMN9adlH2WTi8q3NQ27Z0Sbnb7BNpGPQBeeK+wchncSrl+aW0cuvLhZHx8x0W6LteWFgmkcJaegYYOpi+HKTFSAk4ugppECDCOjhAUNXu5L9uGth7xgztIgvkolSjKfMvdlMdb6P9M3t7S5ChXRWhzP+XFezSHq5onQLOb8Zq9qDELahzf2maKqvC3xroY2DWVTW73+bL8mQEBOqJ1vIanBGDObvyXFVNudQbNchNMgAkwASbABJgAE2ACTIAJMAEmwASYABNgAkyACTABJsAEmAATYAJMgAkwgQET+BemAVBcTdH2WQAAAABJRU5ErkJggg==;" vertex="1" parent="1">
          <mxGeometry x="-1350" y="603" width="280" height="280" as="geometry" />
        </mxCell>
        <mxCell id="XKiLcq2Avilo9yYhWQPy-84" value="" style="shape=image;verticalLabelPosition=bottom;labelBackgroundColor=default;verticalAlign=top;aspect=fixed;imageAspect=0;image=data:image/png,iVBORw0KGgoAAAANSUhEUgAAAGQAAABkCAYAAABw4pVUAAAAAXNSR0IArs4c6QAABi1JREFUeAHtnWloJEUUx9cbUVQ88FjvA1QUPEEQDxA8EVRYxPtCBXHVD4pfVxEvED+Ix+oHFRUlCH5QY7qq4+B6gG4UVFbU6Xo1MRtdUUFX3Uy/qljyJiZOJpPJTHdNT3fPCyyTo6vqvd+/X1V1db3aVav4iwkwASbABJgAE2ACTIAJMAEmwASYABNgAkyACTABJsAEmAATYAJMgAkwASaQCwLrnNv+PT1zeBDhqUKbc+hzvFo/asS5HXJh4DAYIVV8ogTzkNDmY6FwRoJxS/9hLMB8JpR5TCg8bRi4ZOqjc267UNvLBJhPl8JvJ8ji3wVgvhTKXkURlanhZWxM1uLjQmU+SCJEaxmKGlnDk8vIKROfpMKbpMK/W8Gm+xnjUONdmThQpkYEmAfTgV/cbS2tyz7FXViXd0yozANLAa4EOMHftX2mS5OG9zIB9rpMxFiYneHadrSDLW43qewVAvAlCWajjMy0BIylin+UynwuNb4WanulVG7PduVL8buxqH60APwzY0Hi5oGeAAttHpYK/+rODqxLZZ6sfOf2LYUIzU4IFY92ByFB97QQEW3LbqTxZG5qjb8mswF/p+hu9qfQ30ttLkgGoi3gNg+Lna8TCl+XCmc92PB4KVYKQo3jHmD0LEQ/2hRgnih0dNB6lFD4Tz/gDKxOhTcXVhQJ5r6Bges8tiSOOKFwW6XqDi6kKAMczBMD7+4GsuuLKQjglu4c7Dww560OAWgq2h1QKFFGq26PvIH0aU8IeFuhBKEB3SeA/NUVv1MoQQIdH5s/iP66xlChLpQg4+AOK7MgtP5FL9gKIwot4pXuGaRlKk3jZCEEGa26XYIoPkFA0vUjf11Lv6JUAKLU5txQ2WvohZtQ9mLyOTfvYiYm3E70fjsEMyIBt/YLRN7rDVT8kwS7Xmg8aSDRQ/2oALtGgvk+77AytU/hbAj4yljNHZiZMI1nDR2/m6mjLf143tsWymwOFZ7ed1HCyfqRQplNeQeSB/to/SsEc1bfRBmbcntLsNU8OFsUG2iCQ7svvYtCg7dU+H5RQOTJTgFY8S6IBHNvnpwsnC3KXuJNlIp2e5X52SIjcT/0JohUZl1GRvf5fcYAHzwb02G3vxdRZGS+YUHSixlqe0NqQYSqH8NipBeDGNIOztSCSMBbWRBPgoB9Ib0gPH54G9dCZV9ML0hkn+cI8RMhlCmWWpAA8OVsBEFvd2I29vYuUqjx9tSChMo8mlcHi2ZXUJs5IrUgQuPdRXO8s72DiUTKi0wtBlVAb8c6O9h76A5jfULjjV4EoZ3fAvCXYYTo0eevvO6g/y/rqPSDrkcBFljROxHvufWN5H6Fth8Gl7nOxu4bZa/20lW1VkIPNWWG59s3OpVCgL22laO3n8en3GoJ+LNvw8tYX2YHGojInCkB62WEuJJPIoq3ScA/lr1urkvfQJm8me5spD1YjXTigu0CWRZkl37QXT+yye0slDkvVHgHHYRAqW5S4z20HWq06vbz1h31WhFFiihpDsjywtmne+WU6fVSuUMl4Btl38c7L5AAc36mgJM2RnPsAMyb/g+VydEKQGSmqbtKymgg5T6ZcrsGYC+V2jxCkRMASqniQAK+KqJip7iFgLcMBGq/GpUQvz0f+kX7DMFMeF326BfkXuqVgGuzFcLPmVw0cQkid0gvvhbiWpoAZDv4z96ZdhZI5TPZLD0oBSWYDVlECe06pwG4cROA+SJJm9RNlTIymsWXGs/IJEqajsCgrCYJ9vq5s7G6mLVFZprSnisVt2Oz7aX9XirzVpI7tocyX7cbgCliQm0uFMo+t+jwsshMN9adlH2WTi8q3NQ27Z0Sbnb7BNpGPQBeeK+wchncSrl+aW0cuvLhZHx8x0W6LteWFgmkcJaegYYOpi+HKTFSAk4ugppECDCOjhAUNXu5L9uGth7xgztIgvkolSjKfMvdlMdb6P9M3t7S5ChXRWhzP+XFezSHq5onQLOb8Zq9qDELahzf2maKqvC3xroY2DWVTW73+bL8mQEBOqJ1vIanBGDObvyXFVNudQbNchNMgAkwASbABJgAE2ACTIAJMAEmwASYABNgAkyACTABJsAEmAATYAJMgAkwgQET+BemAVBcTdH2WQAAAABJRU5ErkJggg==;" vertex="1" parent="1">
          <mxGeometry x="-1500" y="600" width="283" height="283" as="geometry" />
        </mxCell>
        <mxCell id="XKiLcq2Avilo9yYhWQPy-83" value="" style="shape=image;verticalLabelPosition=bottom;labelBackgroundColor=default;verticalAlign=top;aspect=fixed;imageAspect=0;image=data:image/png,iVBORw0KGgoAAAANSUhEUgAAAGQAAABkCAYAAABw4pVUAAAAAXNSR0IArs4c6QAABi1JREFUeAHtnWloJEUUx9cbUVQ88FjvA1QUPEEQDxA8EVRYxPtCBXHVD4pfVxEvED+Ix+oHFRUlCH5QY7qq4+B6gG4UVFbU6Xo1MRtdUUFX3Uy/qljyJiZOJpPJTHdNT3fPCyyTo6vqvd+/X1V1db3aVav4iwkwASbABJgAE2ACTIAJMAEmwASYABNgAkyACTABJsAEmAATYAJMgAkwASaQCwLrnNv+PT1zeBDhqUKbc+hzvFo/asS5HXJh4DAYIVV8ogTzkNDmY6FwRoJxS/9hLMB8JpR5TCg8bRi4ZOqjc267UNvLBJhPl8JvJ8ji3wVgvhTKXkURlanhZWxM1uLjQmU+SCJEaxmKGlnDk8vIKROfpMKbpMK/W8Gm+xnjUONdmThQpkYEmAfTgV/cbS2tyz7FXViXd0yozANLAa4EOMHftX2mS5OG9zIB9rpMxFiYneHadrSDLW43qewVAvAlCWajjMy0BIylin+UynwuNb4WanulVG7PduVL8buxqH60APwzY0Hi5oGeAAttHpYK/+rODqxLZZ6sfOf2LYUIzU4IFY92ByFB97QQEW3LbqTxZG5qjb8mswF/p+hu9qfQ30ttLkgGoi3gNg+Lna8TCl+XCmc92PB4KVYKQo3jHmD0LEQ/2hRgnih0dNB6lFD4Tz/gDKxOhTcXVhQJ5r6Bges8tiSOOKFwW6XqDi6kKAMczBMD7+4GsuuLKQjglu4c7Dww560OAWgq2h1QKFFGq26PvIH0aU8IeFuhBKEB3SeA/NUVv1MoQQIdH5s/iP66xlChLpQg4+AOK7MgtP5FL9gKIwot4pXuGaRlKk3jZCEEGa26XYIoPkFA0vUjf11Lv6JUAKLU5txQ2WvohZtQ9mLyOTfvYiYm3E70fjsEMyIBt/YLRN7rDVT8kwS7Xmg8aSDRQ/2oALtGgvk+77AytU/hbAj4yljNHZiZMI1nDR2/m6mjLf143tsWymwOFZ7ed1HCyfqRQplNeQeSB/to/SsEc1bfRBmbcntLsNU8OFsUG2iCQ7svvYtCg7dU+H5RQOTJTgFY8S6IBHNvnpwsnC3KXuJNlIp2e5X52SIjcT/0JohUZl1GRvf5fcYAHzwb02G3vxdRZGS+YUHSixlqe0NqQYSqH8NipBeDGNIOztSCSMBbWRBPgoB9Ib0gPH54G9dCZV9ML0hkn+cI8RMhlCmWWpAA8OVsBEFvd2I29vYuUqjx9tSChMo8mlcHi2ZXUJs5IrUgQuPdRXO8s72DiUTKi0wtBlVAb8c6O9h76A5jfULjjV4EoZ3fAvCXYYTo0eevvO6g/y/rqPSDrkcBFljROxHvufWN5H6Fth8Gl7nOxu4bZa/20lW1VkIPNWWG59s3OpVCgL22laO3n8en3GoJ+LNvw8tYX2YHGojInCkB62WEuJJPIoq3ScA/lr1urkvfQJm8me5spD1YjXTigu0CWRZkl37QXT+yye0slDkvVHgHHYRAqW5S4z20HWq06vbz1h31WhFFiihpDsjywtmne+WU6fVSuUMl4Btl38c7L5AAc36mgJM2RnPsAMyb/g+VydEKQGSmqbtKymgg5T6ZcrsGYC+V2jxCkRMASqniQAK+KqJip7iFgLcMBGq/GpUQvz0f+kX7DMFMeF326BfkXuqVgGuzFcLPmVw0cQkid0gvvhbiWpoAZDv4z96ZdhZI5TPZLD0oBSWYDVlECe06pwG4cROA+SJJm9RNlTIymsWXGs/IJEqajsCgrCYJ9vq5s7G6mLVFZprSnisVt2Oz7aX9XirzVpI7tocyX7cbgCliQm0uFMo+t+jwsshMN9adlH2WTi8q3NQ27Z0Sbnb7BNpGPQBeeK+wchncSrl+aW0cuvLhZHx8x0W6LteWFgmkcJaegYYOpi+HKTFSAk4ugppECDCOjhAUNXu5L9uGth7xgztIgvkolSjKfMvdlMdb6P9M3t7S5ChXRWhzP+XFezSHq5onQLOb8Zq9qDELahzf2maKqvC3xroY2DWVTW73+bL8mQEBOqJ1vIanBGDObvyXFVNudQbNchNMgAkwASbABJgAE2ACTIAJMAEmwASYABNgAkyACTABJsAEmAATYAJMgAkwgQET+BemAVBcTdH2WQAAAABJRU5ErkJggg==;" vertex="1" parent="1">
          <mxGeometry x="-1650" y="590" width="280" height="280" as="geometry" />
        </mxCell>
        <mxCell id="XKiLcq2Avilo9yYhWQPy-65" value="" style="html=1;verticalLabelPosition=bottom;align=center;labelBackgroundColor=#ffffff;verticalAlign=top;strokeWidth=2;shadow=0;dashed=0;shape=mxgraph.ios7.icons.cloud;strokeColor=#004C99;" vertex="1" parent="1">
          <mxGeometry x="-1511" y="350" width="457.5" height="240" as="geometry" />
        </mxCell>
        <mxCell id="XKiLcq2Avilo9yYhWQPy-1" value="&lt;div&gt;&lt;b style=&quot;&quot;&gt;&lt;font style=&quot;font-size: 16px;&quot;&gt;Edge Layer&lt;/font&gt;&lt;/b&gt;&lt;/div&gt;" style="text;html=1;align=center;verticalAlign=middle;whiteSpace=wrap;rounded=0;" vertex="1" parent="1">
          <mxGeometry x="-1610" y="1081.5" width="120" height="30" as="geometry" />
        </mxCell>
        <mxCell id="XKiLcq2Avilo9yYhWQPy-2" value="&lt;div&gt;&lt;b style=&quot;&quot;&gt;&lt;font style=&quot;font-size: 16px;&quot;&gt;Data Source&lt;/font&gt;&lt;/b&gt;&lt;/div&gt;&lt;div&gt;&lt;b style=&quot;&quot;&gt;&lt;font size=&quot;3&quot;&gt;Layer&lt;/font&gt;&lt;/b&gt;&lt;/div&gt;" style="text;html=1;align=center;verticalAlign=middle;whiteSpace=wrap;rounded=0;" vertex="1" parent="1">
          <mxGeometry x="-1610" y="1311.5" width="120" height="30" as="geometry" />
        </mxCell>
        <mxCell id="XKiLcq2Avilo9yYhWQPy-3" value="&lt;font style=&quot;font-size: 16px;&quot;&gt;&lt;b style=&quot;&quot;&gt;Cloud&lt;/b&gt;&lt;/font&gt;" style="text;html=1;align=center;verticalAlign=middle;whiteSpace=wrap;rounded=0;" vertex="1" parent="1">
          <mxGeometry x="-1790" y="500" width="120" height="30" as="geometry" />
        </mxCell>
        <mxCell id="XKiLcq2Avilo9yYhWQPy-4" value="" style="endArrow=none;dashed=1;html=1;dashPattern=1 3;strokeWidth=2;rounded=0;fontSize=12;startSize=8;endSize=8;curved=1;" edge="1" parent="1">
          <mxGeometry width="50" height="50" relative="1" as="geometry">
            <mxPoint x="-1610" y="1081.5" as="sourcePoint" />
            <mxPoint x="-900" y="1081.5" as="targetPoint" />
          </mxGeometry>
        </mxCell>
        <mxCell id="XKiLcq2Avilo9yYhWQPy-5" style="edgeStyle=orthogonalEdgeStyle;rounded=0;orthogonalLoop=1;jettySize=auto;html=1;fontSize=12;startSize=8;endSize=8;strokeWidth=3;endArrow=none;startFill=0;entryX=0.5;entryY=0;entryDx=0;entryDy=0;" edge="1" parent="1" target="XKiLcq2Avilo9yYhWQPy-23">
          <mxGeometry relative="1" as="geometry">
            <mxPoint x="-1396" y="1182.0000000000002" as="targetPoint" />
            <Array as="points">
              <mxPoint x="-1170" y="1102" />
              <mxPoint x="-1326" y="1102" />
            </Array>
            <mxPoint x="-1170" y="1082" as="sourcePoint" />
          </mxGeometry>
        </mxCell>
        <mxCell id="XKiLcq2Avilo9yYhWQPy-6" style="edgeStyle=none;curved=1;rounded=0;orthogonalLoop=1;jettySize=auto;html=1;entryX=0.5;entryY=0;entryDx=0;entryDy=0;fontSize=12;startSize=8;endSize=8;strokeWidth=3;endArrow=none;startFill=0;" edge="1" parent="1" target="XKiLcq2Avilo9yYhWQPy-8">
          <mxGeometry relative="1" as="geometry">
            <mxPoint x="-1170.0000000000005" y="1098.4423200534388" as="sourcePoint" />
          </mxGeometry>
        </mxCell>
        <mxCell id="XKiLcq2Avilo9yYhWQPy-7" value="&lt;b&gt;Agent 1&lt;/b&gt;" style="text;html=1;align=center;verticalAlign=middle;whiteSpace=wrap;rounded=0;fontSize=16;" vertex="1" parent="1">
          <mxGeometry x="-1326" y="1132" width="70" height="30" as="geometry" />
        </mxCell>
        <mxCell id="XKiLcq2Avilo9yYhWQPy-8" value="" style="shape=image;verticalLabelPosition=bottom;labelBackgroundColor=default;verticalAlign=top;aspect=fixed;imageAspect=0;image=data:image/png,iVBORw0KGgoAAAANSUhEUgAAAGQAAABkCAYAAABw4pVUAAAAAXNSR0IArs4c6QAABglJREFUeAHtnT2OJEUQhUMg4SFhYKwEJj8SHnsVjoDHOTCwsBAHwMDgZwUIiRtwAgTcABAgfgzAAjal/Xa7q7OyXnVGRkX1VEuj11UV9eJ7Gd09s9UzvWbjb8+Y2Vtm9rWZ/W5m/+3s628z+87M3jGz58cv19gOr5rZtzsbQOsB87OZ3R+7ZOPcXzGzX25oGAyqZHpp3LKNcX7WzL65wWEwlO/N7LkxS+fv+tTDp/UXlWF8YGYv+Lcb7njv4feO9yp5vjKzp4d3d2jwdgX+fQffrS0+rOR6d2uopf5vmNm/FXCe6reoby4tylbHXzOzv+7YMMoD7B8zKz9Nprt9eQeHwTP+o3TTMLOf7vBASvZ0Nx4taDpAZyByos72/XaAof2OuR3IiaajBQxNB+gMRE7U2b7fDjC03zG3AznRdLSAoekAnYHIiTrb99sBhvY75nYgJ5qOFjA0HaAzEDlRZ/t+O8DQfsfcDuRE09EChrYAy5s85Yrwjwn/MVmYCtvSG1HkRFt5NzkGGDoHUYLu4ZpXYWwNhZzoXN7N9gOGzoHU3ivhnGz6+VyIyjO7UbrNoelizlHs6ZpX6xqVmnduHYbvVwHVuuHAMw1UPrVups343SqgWjeeuN5B5VPr6l0C9qqAal0AcrWFyqfWVZtE7FQB1boI5loPlU+tq/UI2acCqnUh0JUmKp9aV2kRs0sFVOtiqC+7qHxq3WWHoD0qoFoXhH3RRuVT6y4aRO1QAdW6KO5pH5VPrZv6h22rgGpdGPikkcqn1k3s4zZVQLUujvy8k8qn1p27B26pgHv6G5HfGuun5m1YjD2kApYLdtParNufNZZsytwo3eaQCngMJGg+6kCOl6xkA1EHF4R90UblU+suGkTtUAHVuijuaR+VT62b+odtq4BqXRj4pJHKp9ZN7OM2VUC1Lo78vJPKp9aduwduqYBqXSD6WSuVT607M4/cUAHVukj2014qn1p36h16XwVU60LhT5qpfGrdiXXsXRVQrYulf9JN5VPrnjgH31MB1bpg/MftVD617rFx9B0VUK2L5qefyqfW4RuuKmDG3+edsrP9Q2MVqUEbpdscAgydozh+lXRuZZz3Mwh0zn5Pv2z9+lyIylsIjdJtDjEItEVRhlIuw2d8+SpMha01jJKNnGgr7ybHAEM3gQhsSk40sLXWCjBUO2u/VeRE0yUBDE0H6AxETtTZvt8OMLTfMbcDOdF0tICh6QCdgciJOtv32wGG9jvmdiAnmo4WMDQdoDMQOVFn+347wNB+x9wO5ETT0QKGpgN0BiIn6mzfbwcY2u+Y24GcaDpawNB0gM5A5ESd7fvtAEP7HXM7kBNNRwsYmg7QGYicqLN9vx1gaL9jbgdyouloAUMjAF80s4/N7M9HXw/MrPyvDBE3cqIRPVf1AAxddfIVxWUYv1belyj7yrHRN3Kio/ut9gcMXW2w8oTyzKDXVCM+aXracyX++PJowPIyNe3J9h/j4170Dmi5rgWLga47e311ayDlj4JG38iJju632h8wdLXByhM+bTxDPlnpdU05OdFrPIaeAxg6tNmjn6bmvqm/PLp55cEQ0HJdCwaBrjv7uury01T5Bl6+Z5Sv8syIGEahJSd6XYKBZwGGDmyVwpqcaAqoUwjA0NNjt3ifnGi6jICh6QCdgciJOtv32wGG9jvmdiAnmo4WMDQdoDMQOVFn+347wNB+x9wO5ETT0QKGRgAeV3sbq8wg0Eapy6Hjau/CMjIIdKG8+/BxtXdhCRkEulDefbh1cfG42rvBpYTWQI6rvRsM5Ljau/Aiw0sVulDefbi8d35c7W0sI4NAG6Vuh46rvY2lZBBoo/QmDpETTRcKMDQdoDMQOVFn+347wNB+x9wO5ETT0QKGpgN0BiIn6mzfbwcY2u+Y24GcaDpawNB0gM5A5ESd7fvtAEP7HXM7kBNNRwsYmg7QGYicqLN9vx1gaL9jbgdyouloAUPTAToDkRN1tu+3y/hRSyzWaG198lz/yl7psKdPivMeUPl8rXS3vXxSnPcwyn/zvfRhZ5sNK/MnxXkPQv3kuVXD+B/Pyocw4ZPfAgAAAABJRU5ErkJggg==;" vertex="1" parent="1">
          <mxGeometry x="-1220" y="1162" width="100" height="100" as="geometry" />
        </mxCell>
        <mxCell id="XKiLcq2Avilo9yYhWQPy-9" value="" style="shape=image;verticalLabelPosition=bottom;labelBackgroundColor=default;verticalAlign=top;aspect=fixed;imageAspect=0;image=data:image/png,iVBORw0KGgoAAAANSUhEUgAAAGQAAABkCAYAAABw4pVUAAAAAXNSR0IArs4c6QAABglJREFUeAHtnT2OJEUQhUMg4SFhYKwEJj8SHnsVjoDHOTCwsBAHwMDgZwUIiRtwAgTcABAgfgzAAjal/Xa7q7OyXnVGRkX1VEuj11UV9eJ7Gd09s9UzvWbjb8+Y2Vtm9rWZ/W5m/+3s628z+87M3jGz58cv19gOr5rZtzsbQOsB87OZ3R+7ZOPcXzGzX25oGAyqZHpp3LKNcX7WzL65wWEwlO/N7LkxS+fv+tTDp/UXlWF8YGYv+Lcb7njv4feO9yp5vjKzp4d3d2jwdgX+fQffrS0+rOR6d2uopf5vmNm/FXCe6reoby4tylbHXzOzv+7YMMoD7B8zKz9Nprt9eQeHwTP+o3TTMLOf7vBASvZ0Nx4taDpAZyByos72/XaAof2OuR3IiaajBQxNB+gMRE7U2b7fDjC03zG3AznRdLSAoekAnYHIiTrb99sBhvY75nYgJ5qOFjA0HaAzEDlRZ/t+O8DQfsfcDuRE09EChrYAy5s85Yrwjwn/MVmYCtvSG1HkRFt5NzkGGDoHUYLu4ZpXYWwNhZzoXN7N9gOGzoHU3ivhnGz6+VyIyjO7UbrNoelizlHs6ZpX6xqVmnduHYbvVwHVuuHAMw1UPrVups343SqgWjeeuN5B5VPr6l0C9qqAal0AcrWFyqfWVZtE7FQB1boI5loPlU+tq/UI2acCqnUh0JUmKp9aV2kRs0sFVOtiqC+7qHxq3WWHoD0qoFoXhH3RRuVT6y4aRO1QAdW6KO5pH5VPrZv6h22rgGpdGPikkcqn1k3s4zZVQLUujvy8k8qn1p27B26pgHv6G5HfGuun5m1YjD2kApYLdtParNufNZZsytwo3eaQCngMJGg+6kCOl6xkA1EHF4R90UblU+suGkTtUAHVuijuaR+VT62b+odtq4BqXRj4pJHKp9ZN7OM2VUC1Lo78vJPKp9aduwduqYBqXSD6WSuVT607M4/cUAHVukj2014qn1p36h16XwVU60LhT5qpfGrdiXXsXRVQrYulf9JN5VPrnjgH31MB1bpg/MftVD617rFx9B0VUK2L5qefyqfW4RuuKmDG3+edsrP9Q2MVqUEbpdscAgydozh+lXRuZZz3Mwh0zn5Pv2z9+lyIylsIjdJtDjEItEVRhlIuw2d8+SpMha01jJKNnGgr7ybHAEM3gQhsSk40sLXWCjBUO2u/VeRE0yUBDE0H6AxETtTZvt8OMLTfMbcDOdF0tICh6QCdgciJOtv32wGG9jvmdiAnmo4WMDQdoDMQOVFn+347wNB+x9wO5ETT0QKGpgN0BiIn6mzfbwcY2u+Y24GcaDpawNB0gM5A5ESd7fvtAEP7HXM7kBNNRwsYmg7QGYicqLN9vx1gaL9jbgdyouloAUMjAF80s4/N7M9HXw/MrPyvDBE3cqIRPVf1AAxddfIVxWUYv1belyj7yrHRN3Kio/ut9gcMXW2w8oTyzKDXVCM+aXracyX++PJowPIyNe3J9h/j4170Dmi5rgWLga47e311ayDlj4JG38iJju632h8wdLXByhM+bTxDPlnpdU05OdFrPIaeAxg6tNmjn6bmvqm/PLp55cEQ0HJdCwaBrjv7uury01T5Bl6+Z5Sv8syIGEahJSd6XYKBZwGGDmyVwpqcaAqoUwjA0NNjt3ifnGi6jICh6QCdgciJOtv32wGG9jvmdiAnmo4WMDQdoDMQOVFn+347wNB+x9wO5ETT0QKGRgAeV3sbq8wg0Eapy6Hjau/CMjIIdKG8+/BxtXdhCRkEulDefbh1cfG42rvBpYTWQI6rvRsM5Ljau/Aiw0sVulDefbi8d35c7W0sI4NAG6Vuh46rvY2lZBBoo/QmDpETTRcKMDQdoDMQOVFn+347wNB+x9wO5ETT0QKGpgN0BiIn6mzfbwcY2u+Y24GcaDpawNB0gM5A5ESd7fvtAEP7HXM7kBNNRwsYmg7QGYicqLN9vx1gaL9jbgdyouloAUPTAToDkRN1tu+3y/hRSyzWaG198lz/yl7psKdPivMeUPl8rXS3vXxSnPcwyn/zvfRhZ5sNK/MnxXkPQv3kuVXD+B/Pyocw4ZPfAgAAAABJRU5ErkJggg==;" vertex="1" parent="1">
          <mxGeometry x="-1071" y="1162" width="100" height="100" as="geometry" />
        </mxCell>
        <mxCell id="XKiLcq2Avilo9yYhWQPy-10" value="&lt;b&gt;&lt;font style=&quot;font-size: 16px;&quot;&gt;Agent 3&lt;/font&gt;&lt;/b&gt;" style="text;html=1;align=center;verticalAlign=middle;whiteSpace=wrap;rounded=0;" vertex="1" parent="1">
          <mxGeometry x="-1021" y="1132" width="65" height="30" as="geometry" />
        </mxCell>
        <mxCell id="XKiLcq2Avilo9yYhWQPy-11" style="edgeStyle=orthogonalEdgeStyle;rounded=0;orthogonalLoop=1;jettySize=auto;html=1;fontSize=12;startSize=8;endSize=8;strokeWidth=3;endArrow=none;startFill=0;" edge="1" parent="1">
          <mxGeometry relative="1" as="geometry">
            <Array as="points">
              <mxPoint x="-1170" y="1102" />
              <mxPoint x="-1021" y="1102" />
            </Array>
            <mxPoint x="-1170" y="1092" as="sourcePoint" />
            <mxPoint x="-1021" y="1162" as="targetPoint" />
          </mxGeometry>
        </mxCell>
        <mxCell id="XKiLcq2Avilo9yYhWQPy-12" style="edgeStyle=none;curved=1;rounded=0;orthogonalLoop=1;jettySize=auto;html=1;fontSize=12;startSize=8;endSize=8;exitX=0.5;exitY=1;exitDx=0;exitDy=0;" edge="1" parent="1" source="XKiLcq2Avilo9yYhWQPy-23" target="XKiLcq2Avilo9yYhWQPy-21">
          <mxGeometry relative="1" as="geometry">
            <mxPoint x="-1396" y="1322" as="sourcePoint" />
          </mxGeometry>
        </mxCell>
        <mxCell id="XKiLcq2Avilo9yYhWQPy-13" style="edgeStyle=none;curved=1;rounded=0;orthogonalLoop=1;jettySize=auto;html=1;fontSize=12;startSize=8;endSize=8;exitX=0.5;exitY=1;exitDx=0;exitDy=0;" edge="1" parent="1" source="XKiLcq2Avilo9yYhWQPy-23" target="XKiLcq2Avilo9yYhWQPy-22">
          <mxGeometry relative="1" as="geometry">
            <mxPoint x="-1326" y="1382" as="sourcePoint" />
          </mxGeometry>
        </mxCell>
        <mxCell id="XKiLcq2Avilo9yYhWQPy-14" style="rounded=0;orthogonalLoop=1;jettySize=auto;html=1;exitX=0.5;exitY=1;exitDx=0;exitDy=0;" edge="1" parent="1" source="XKiLcq2Avilo9yYhWQPy-16" target="XKiLcq2Avilo9yYhWQPy-24">
          <mxGeometry relative="1" as="geometry" />
        </mxCell>
        <mxCell id="XKiLcq2Avilo9yYhWQPy-15" style="rounded=0;orthogonalLoop=1;jettySize=auto;html=1;exitX=0.5;exitY=1;exitDx=0;exitDy=0;" edge="1" parent="1" source="XKiLcq2Avilo9yYhWQPy-16" target="XKiLcq2Avilo9yYhWQPy-25">
          <mxGeometry relative="1" as="geometry" />
        </mxCell>
        <mxCell id="XKiLcq2Avilo9yYhWQPy-16" value="" style="shape=image;verticalLabelPosition=bottom;labelBackgroundColor=default;verticalAlign=top;aspect=fixed;imageAspect=0;image=data:image/png,iVBORw0KGgoAAAANSUhEUgAAAGQAAABkCAYAAABw4pVUAAAAAXNSR0IArs4c6QAABglJREFUeAHtnT2OJEUQhUMg4SFhYKwEJj8SHnsVjoDHOTCwsBAHwMDgZwUIiRtwAgTcABAgfgzAAjal/Xa7q7OyXnVGRkX1VEuj11UV9eJ7Gd09s9UzvWbjb8+Y2Vtm9rWZ/W5m/+3s628z+87M3jGz58cv19gOr5rZtzsbQOsB87OZ3R+7ZOPcXzGzX25oGAyqZHpp3LKNcX7WzL65wWEwlO/N7LkxS+fv+tTDp/UXlWF8YGYv+Lcb7njv4feO9yp5vjKzp4d3d2jwdgX+fQffrS0+rOR6d2uopf5vmNm/FXCe6reoby4tylbHXzOzv+7YMMoD7B8zKz9Nprt9eQeHwTP+o3TTMLOf7vBASvZ0Nx4taDpAZyByos72/XaAof2OuR3IiaajBQxNB+gMRE7U2b7fDjC03zG3AznRdLSAoekAnYHIiTrb99sBhvY75nYgJ5qOFjA0HaAzEDlRZ/t+O8DQfsfcDuRE09EChrYAy5s85Yrwjwn/MVmYCtvSG1HkRFt5NzkGGDoHUYLu4ZpXYWwNhZzoXN7N9gOGzoHU3ivhnGz6+VyIyjO7UbrNoelizlHs6ZpX6xqVmnduHYbvVwHVuuHAMw1UPrVups343SqgWjeeuN5B5VPr6l0C9qqAal0AcrWFyqfWVZtE7FQB1boI5loPlU+tq/UI2acCqnUh0JUmKp9aV2kRs0sFVOtiqC+7qHxq3WWHoD0qoFoXhH3RRuVT6y4aRO1QAdW6KO5pH5VPrZv6h22rgGpdGPikkcqn1k3s4zZVQLUujvy8k8qn1p27B26pgHv6G5HfGuun5m1YjD2kApYLdtParNufNZZsytwo3eaQCngMJGg+6kCOl6xkA1EHF4R90UblU+suGkTtUAHVuijuaR+VT62b+odtq4BqXRj4pJHKp9ZN7OM2VUC1Lo78vJPKp9aduwduqYBqXSD6WSuVT607M4/cUAHVukj2014qn1p36h16XwVU60LhT5qpfGrdiXXsXRVQrYulf9JN5VPrnjgH31MB1bpg/MftVD617rFx9B0VUK2L5qefyqfW4RuuKmDG3+edsrP9Q2MVqUEbpdscAgydozh+lXRuZZz3Mwh0zn5Pv2z9+lyIylsIjdJtDjEItEVRhlIuw2d8+SpMha01jJKNnGgr7ybHAEM3gQhsSk40sLXWCjBUO2u/VeRE0yUBDE0H6AxETtTZvt8OMLTfMbcDOdF0tICh6QCdgciJOtv32wGG9jvmdiAnmo4WMDQdoDMQOVFn+347wNB+x9wO5ETT0QKGpgN0BiIn6mzfbwcY2u+Y24GcaDpawNB0gM5A5ESd7fvtAEP7HXM7kBNNRwsYmg7QGYicqLN9vx1gaL9jbgdyouloAUMjAF80s4/N7M9HXw/MrPyvDBE3cqIRPVf1AAxddfIVxWUYv1belyj7yrHRN3Kio/ut9gcMXW2w8oTyzKDXVCM+aXracyX++PJowPIyNe3J9h/j4170Dmi5rgWLga47e311ayDlj4JG38iJju632h8wdLXByhM+bTxDPlnpdU05OdFrPIaeAxg6tNmjn6bmvqm/PLp55cEQ0HJdCwaBrjv7uury01T5Bl6+Z5Sv8syIGEahJSd6XYKBZwGGDmyVwpqcaAqoUwjA0NNjt3ifnGi6jICh6QCdgciJOtv32wGG9jvmdiAnmo4WMDQdoDMQOVFn+347wNB+x9wO5ETT0QKGRgAeV3sbq8wg0Eapy6Hjau/CMjIIdKG8+/BxtXdhCRkEulDefbh1cfG42rvBpYTWQI6rvRsM5Ljau/Aiw0sVulDefbi8d35c7W0sI4NAG6Vuh46rvY2lZBBoo/QmDpETTRcKMDQdoDMQOVFn+347wNB+x9wO5ETT0QKGpgN0BiIn6mzfbwcY2u+Y24GcaDpawNB0gM5A5ESd7fvtAEP7HXM7kBNNRwsYmg7QGYicqLN9vx1gaL9jbgdyouloAUPTAToDkRN1tu+3y/hRSyzWaG198lz/yl7psKdPivMeUPl8rXS3vXxSnPcwyn/zvfRhZ5sNK/MnxXkPQv3kuVXD+B/Pyocw4ZPfAgAAAABJRU5ErkJggg==;" vertex="1" parent="1">
          <mxGeometry x="-1220" y="1162" width="100" height="100" as="geometry" />
        </mxCell>
        <mxCell id="XKiLcq2Avilo9yYhWQPy-17" value="&lt;b&gt;&lt;font style=&quot;font-size: 16px;&quot;&gt;Agent 2&lt;/font&gt;&lt;/b&gt;" style="text;html=1;align=center;verticalAlign=middle;whiteSpace=wrap;rounded=0;" vertex="1" parent="1">
          <mxGeometry x="-1171" y="1132" width="65" height="30" as="geometry" />
        </mxCell>
        <mxCell id="XKiLcq2Avilo9yYhWQPy-18" style="rounded=0;orthogonalLoop=1;jettySize=auto;html=1;exitX=0.5;exitY=1;exitDx=0;exitDy=0;" edge="1" parent="1" source="XKiLcq2Avilo9yYhWQPy-20" target="XKiLcq2Avilo9yYhWQPy-26">
          <mxGeometry relative="1" as="geometry" />
        </mxCell>
        <mxCell id="XKiLcq2Avilo9yYhWQPy-19" style="rounded=0;orthogonalLoop=1;jettySize=auto;html=1;exitX=0.5;exitY=1;exitDx=0;exitDy=0;" edge="1" parent="1" source="XKiLcq2Avilo9yYhWQPy-20" target="XKiLcq2Avilo9yYhWQPy-27">
          <mxGeometry relative="1" as="geometry" />
        </mxCell>
        <mxCell id="XKiLcq2Avilo9yYhWQPy-20" value="" style="shape=image;verticalLabelPosition=bottom;labelBackgroundColor=default;verticalAlign=top;aspect=fixed;imageAspect=0;image=data:image/png,iVBORw0KGgoAAAANSUhEUgAAAGQAAABkCAYAAABw4pVUAAAAAXNSR0IArs4c6QAABglJREFUeAHtnT2OJEUQhUMg4SFhYKwEJj8SHnsVjoDHOTCwsBAHwMDgZwUIiRtwAgTcABAgfgzAAjal/Xa7q7OyXnVGRkX1VEuj11UV9eJ7Gd09s9UzvWbjb8+Y2Vtm9rWZ/W5m/+3s628z+87M3jGz58cv19gOr5rZtzsbQOsB87OZ3R+7ZOPcXzGzX25oGAyqZHpp3LKNcX7WzL65wWEwlO/N7LkxS+fv+tTDp/UXlWF8YGYv+Lcb7njv4feO9yp5vjKzp4d3d2jwdgX+fQffrS0+rOR6d2uopf5vmNm/FXCe6reoby4tylbHXzOzv+7YMMoD7B8zKz9Nprt9eQeHwTP+o3TTMLOf7vBASvZ0Nx4taDpAZyByos72/XaAof2OuR3IiaajBQxNB+gMRE7U2b7fDjC03zG3AznRdLSAoekAnYHIiTrb99sBhvY75nYgJ5qOFjA0HaAzEDlRZ/t+O8DQfsfcDuRE09EChrYAy5s85Yrwjwn/MVmYCtvSG1HkRFt5NzkGGDoHUYLu4ZpXYWwNhZzoXN7N9gOGzoHU3ivhnGz6+VyIyjO7UbrNoelizlHs6ZpX6xqVmnduHYbvVwHVuuHAMw1UPrVups343SqgWjeeuN5B5VPr6l0C9qqAal0AcrWFyqfWVZtE7FQB1boI5loPlU+tq/UI2acCqnUh0JUmKp9aV2kRs0sFVOtiqC+7qHxq3WWHoD0qoFoXhH3RRuVT6y4aRO1QAdW6KO5pH5VPrZv6h22rgGpdGPikkcqn1k3s4zZVQLUujvy8k8qn1p27B26pgHv6G5HfGuun5m1YjD2kApYLdtParNufNZZsytwo3eaQCngMJGg+6kCOl6xkA1EHF4R90UblU+suGkTtUAHVuijuaR+VT62b+odtq4BqXRj4pJHKp9ZN7OM2VUC1Lo78vJPKp9aduwduqYBqXSD6WSuVT607M4/cUAHVukj2014qn1p36h16XwVU60LhT5qpfGrdiXXsXRVQrYulf9JN5VPrnjgH31MB1bpg/MftVD617rFx9B0VUK2L5qefyqfW4RuuKmDG3+edsrP9Q2MVqUEbpdscAgydozh+lXRuZZz3Mwh0zn5Pv2z9+lyIylsIjdJtDjEItEVRhlIuw2d8+SpMha01jJKNnGgr7ybHAEM3gQhsSk40sLXWCjBUO2u/VeRE0yUBDE0H6AxETtTZvt8OMLTfMbcDOdF0tICh6QCdgciJOtv32wGG9jvmdiAnmo4WMDQdoDMQOVFn+347wNB+x9wO5ETT0QKGpgN0BiIn6mzfbwcY2u+Y24GcaDpawNB0gM5A5ESd7fvtAEP7HXM7kBNNRwsYmg7QGYicqLN9vx1gaL9jbgdyouloAUMjAF80s4/N7M9HXw/MrPyvDBE3cqIRPVf1AAxddfIVxWUYv1belyj7yrHRN3Kio/ut9gcMXW2w8oTyzKDXVCM+aXracyX++PJowPIyNe3J9h/j4170Dmi5rgWLga47e311ayDlj4JG38iJju632h8wdLXByhM+bTxDPlnpdU05OdFrPIaeAxg6tNmjn6bmvqm/PLp55cEQ0HJdCwaBrjv7uury01T5Bl6+Z5Sv8syIGEahJSd6XYKBZwGGDmyVwpqcaAqoUwjA0NNjt3ifnGi6jICh6QCdgciJOtv32wGG9jvmdiAnmo4WMDQdoDMQOVFn+347wNB+x9wO5ETT0QKGRgAeV3sbq8wg0Eapy6Hjau/CMjIIdKG8+/BxtXdhCRkEulDefbh1cfG42rvBpYTWQI6rvRsM5Ljau/Aiw0sVulDefbi8d35c7W0sI4NAG6Vuh46rvY2lZBBoo/QmDpETTRcKMDQdoDMQOVFn+347wNB+x9wO5ETT0QKGpgN0BiIn6mzfbwcY2u+Y24GcaDpawNB0gM5A5ESd7fvtAEP7HXM7kBNNRwsYmg7QGYicqLN9vx1gaL9jbgdyouloAUPTAToDkRN1tu+3y/hRSyzWaG198lz/yl7psKdPivMeUPl8rXS3vXxSnPcwyn/zvfRhZ5sNK/MnxXkPQv3kuVXD+B/Pyocw4ZPfAgAAAABJRU5ErkJggg==;" vertex="1" parent="1">
          <mxGeometry x="-1071" y="1162" width="100" height="100" as="geometry" />
        </mxCell>
        <mxCell id="XKiLcq2Avilo9yYhWQPy-21" value="" style="sketch=0;outlineConnect=0;fontColor=#232F3E;gradientColor=none;fillColor=#232F3D;strokeColor=none;dashed=0;verticalLabelPosition=bottom;verticalAlign=top;align=center;html=1;fontSize=12;fontStyle=0;aspect=fixed;pointerEvents=1;shape=mxgraph.aws4.users;" vertex="1" parent="1">
          <mxGeometry x="-1386" y="1308" width="50" height="50" as="geometry" />
        </mxCell>
        <mxCell id="XKiLcq2Avilo9yYhWQPy-22" value="" style="fontColor=#0066CC;verticalAlign=top;verticalLabelPosition=bottom;labelPosition=center;align=center;html=1;outlineConnect=0;fillColor=#CCCCCC;strokeColor=#6881B3;gradientColor=none;gradientDirection=north;strokeWidth=2;shape=mxgraph.networks.security_camera;" vertex="1" parent="1">
          <mxGeometry x="-1326" y="1308" width="70" height="54" as="geometry" />
        </mxCell>
        <mxCell id="XKiLcq2Avilo9yYhWQPy-23" value="" style="shape=image;verticalLabelPosition=bottom;labelBackgroundColor=default;verticalAlign=top;aspect=fixed;imageAspect=0;image=data:image/png,iVBORw0KGgoAAAANSUhEUgAAAGQAAABkCAYAAABw4pVUAAAAAXNSR0IArs4c6QAABglJREFUeAHtnT2OJEUQhUMg4SFhYKwEJj8SHnsVjoDHOTCwsBAHwMDgZwUIiRtwAgTcABAgfgzAAjal/Xa7q7OyXnVGRkX1VEuj11UV9eJ7Gd09s9UzvWbjb8+Y2Vtm9rWZ/W5m/+3s628z+87M3jGz58cv19gOr5rZtzsbQOsB87OZ3R+7ZOPcXzGzX25oGAyqZHpp3LKNcX7WzL65wWEwlO/N7LkxS+fv+tTDp/UXlWF8YGYv+Lcb7njv4feO9yp5vjKzp4d3d2jwdgX+fQffrS0+rOR6d2uopf5vmNm/FXCe6reoby4tylbHXzOzv+7YMMoD7B8zKz9Nprt9eQeHwTP+o3TTMLOf7vBASvZ0Nx4taDpAZyByos72/XaAof2OuR3IiaajBQxNB+gMRE7U2b7fDjC03zG3AznRdLSAoekAnYHIiTrb99sBhvY75nYgJ5qOFjA0HaAzEDlRZ/t+O8DQfsfcDuRE09EChrYAy5s85Yrwjwn/MVmYCtvSG1HkRFt5NzkGGDoHUYLu4ZpXYWwNhZzoXN7N9gOGzoHU3ivhnGz6+VyIyjO7UbrNoelizlHs6ZpX6xqVmnduHYbvVwHVuuHAMw1UPrVups343SqgWjeeuN5B5VPr6l0C9qqAal0AcrWFyqfWVZtE7FQB1boI5loPlU+tq/UI2acCqnUh0JUmKp9aV2kRs0sFVOtiqC+7qHxq3WWHoD0qoFoXhH3RRuVT6y4aRO1QAdW6KO5pH5VPrZv6h22rgGpdGPikkcqn1k3s4zZVQLUujvy8k8qn1p27B26pgHv6G5HfGuun5m1YjD2kApYLdtParNufNZZsytwo3eaQCngMJGg+6kCOl6xkA1EHF4R90UblU+suGkTtUAHVuijuaR+VT62b+odtq4BqXRj4pJHKp9ZN7OM2VUC1Lo78vJPKp9aduwduqYBqXSD6WSuVT607M4/cUAHVukj2014qn1p36h16XwVU60LhT5qpfGrdiXXsXRVQrYulf9JN5VPrnjgH31MB1bpg/MftVD617rFx9B0VUK2L5qefyqfW4RuuKmDG3+edsrP9Q2MVqUEbpdscAgydozh+lXRuZZz3Mwh0zn5Pv2z9+lyIylsIjdJtDjEItEVRhlIuw2d8+SpMha01jJKNnGgr7ybHAEM3gQhsSk40sLXWCjBUO2u/VeRE0yUBDE0H6AxETtTZvt8OMLTfMbcDOdF0tICh6QCdgciJOtv32wGG9jvmdiAnmo4WMDQdoDMQOVFn+347wNB+x9wO5ETT0QKGpgN0BiIn6mzfbwcY2u+Y24GcaDpawNB0gM5A5ESd7fvtAEP7HXM7kBNNRwsYmg7QGYicqLN9vx1gaL9jbgdyouloAUMjAF80s4/N7M9HXw/MrPyvDBE3cqIRPVf1AAxddfIVxWUYv1belyj7yrHRN3Kio/ut9gcMXW2w8oTyzKDXVCM+aXracyX++PJowPIyNe3J9h/j4170Dmi5rgWLga47e311ayDlj4JG38iJju632h8wdLXByhM+bTxDPlnpdU05OdFrPIaeAxg6tNmjn6bmvqm/PLp55cEQ0HJdCwaBrjv7uury01T5Bl6+Z5Sv8syIGEahJSd6XYKBZwGGDmyVwpqcaAqoUwjA0NNjt3ifnGi6jICh6QCdgciJOtv32wGG9jvmdiAnmo4WMDQdoDMQOVFn+347wNB+x9wO5ETT0QKGRgAeV3sbq8wg0Eapy6Hjau/CMjIIdKG8+/BxtXdhCRkEulDefbh1cfG42rvBpYTWQI6rvRsM5Ljau/Aiw0sVulDefbi8d35c7W0sI4NAG6Vuh46rvY2lZBBoo/QmDpETTRcKMDQdoDMQOVFn+347wNB+x9wO5ETT0QKGpgN0BiIn6mzfbwcY2u+Y24GcaDpawNB0gM5A5ESd7fvtAEP7HXM7kBNNRwsYmg7QGYicqLN9vx1gaL9jbgdyouloAUPTAToDkRN1tu+3y/hRSyzWaG198lz/yl7psKdPivMeUPl8rXS3vXxSnPcwyn/zvfRhZ5sNK/MnxXkPQv3kuVXD+B/Pyocw4ZPfAgAAAABJRU5ErkJggg==;" vertex="1" parent="1">
          <mxGeometry x="-1324.5" y="1180" width="100" height="100" as="geometry" />
        </mxCell>
        <mxCell id="XKiLcq2Avilo9yYhWQPy-24" value="" style="sketch=0;outlineConnect=0;fontColor=#232F3E;gradientColor=none;fillColor=#232F3D;strokeColor=none;dashed=0;verticalLabelPosition=bottom;verticalAlign=top;align=center;html=1;fontSize=12;fontStyle=0;aspect=fixed;pointerEvents=1;shape=mxgraph.aws4.users;" vertex="1" parent="1">
          <mxGeometry x="-1226" y="1308" width="50" height="50" as="geometry" />
        </mxCell>
        <mxCell id="XKiLcq2Avilo9yYhWQPy-25" value="" style="fontColor=#0066CC;verticalAlign=top;verticalLabelPosition=bottom;labelPosition=center;align=center;html=1;outlineConnect=0;fillColor=#CCCCCC;strokeColor=#6881B3;gradientColor=none;gradientDirection=north;strokeWidth=2;shape=mxgraph.networks.security_camera;" vertex="1" parent="1">
          <mxGeometry x="-1166" y="1308" width="70" height="54" as="geometry" />
        </mxCell>
        <mxCell id="XKiLcq2Avilo9yYhWQPy-26" value="" style="sketch=0;outlineConnect=0;fontColor=#232F3E;gradientColor=none;fillColor=#232F3D;strokeColor=none;dashed=0;verticalLabelPosition=bottom;verticalAlign=top;align=center;html=1;fontSize=12;fontStyle=0;aspect=fixed;pointerEvents=1;shape=mxgraph.aws4.users;" vertex="1" parent="1">
          <mxGeometry x="-1081" y="1308" width="50" height="50" as="geometry" />
        </mxCell>
        <mxCell id="XKiLcq2Avilo9yYhWQPy-27" value="" style="fontColor=#0066CC;verticalAlign=top;verticalLabelPosition=bottom;labelPosition=center;align=center;html=1;outlineConnect=0;fillColor=#CCCCCC;strokeColor=#6881B3;gradientColor=none;gradientDirection=north;strokeWidth=2;shape=mxgraph.networks.security_camera;" vertex="1" parent="1">
          <mxGeometry x="-1021" y="1308" width="70" height="54" as="geometry" />
        </mxCell>
        <mxCell id="XKiLcq2Avilo9yYhWQPy-29" value="&lt;font style=&quot;font-size: 16px;&quot;&gt;Kubelet&lt;/font&gt;" style="text;html=1;align=center;verticalAlign=middle;whiteSpace=wrap;rounded=0;container=0;" vertex="1" parent="1">
          <mxGeometry x="-1367" y="1041" width="60" height="30" as="geometry" />
        </mxCell>
        <mxCell id="XKiLcq2Avilo9yYhWQPy-30" value="&lt;font style=&quot;font-size: 16px; font-weight: normal;&quot;&gt;Knative&lt;/font&gt;" style="swimlane;whiteSpace=wrap;html=1;startSize=23;container=0;" vertex="1" parent="1">
          <mxGeometry x="-1039" y="950" width="103" height="121" as="geometry" />
        </mxCell>
        <mxCell id="XKiLcq2Avilo9yYhWQPy-31" value="&lt;div style=&quot;line-height: 0%;&quot;&gt;&lt;p&gt;&lt;font style=&quot;font-size: 16px;&quot;&gt;feature-&lt;br&gt;&lt;/font&gt;&lt;/p&gt;&lt;p&gt;&lt;font size=&quot;3&quot;&gt;matcher&lt;/font&gt;&lt;/p&gt;&lt;/div&gt;" style="rounded=1;whiteSpace=wrap;html=1;container=0;" vertex="1" parent="XKiLcq2Avilo9yYhWQPy-30">
          <mxGeometry x="6.5" y="31" width="88.75" height="39" as="geometry" />
        </mxCell>
        <mxCell id="XKiLcq2Avilo9yYhWQPy-32" value="&lt;font style=&quot;font-size: 16px; line-height: 0%;&quot;&gt;feature-extractor&lt;/font&gt;" style="rounded=1;whiteSpace=wrap;html=1;container=0;" vertex="1" parent="XKiLcq2Avilo9yYhWQPy-30">
          <mxGeometry x="6.5" y="79" width="90" height="40" as="geometry" />
        </mxCell>
        <mxCell id="XKiLcq2Avilo9yYhWQPy-33" value="" style="shape=image;verticalLabelPosition=bottom;labelBackgroundColor=default;verticalAlign=top;aspect=fixed;imageAspect=0;image=data:image/png,iVBORw0KGgoAAAANSUhEUgAAAGQAAABkCAYAAABw4pVUAAAAAXNSR0IArs4c6QAACdZJREFUeAHtnWfILTUax//23rB3UVCx9w5+sYEFxYLYOxbUDxZ0RdfFiqgoFhQRe0GxF+y9fbBh772LbdVdXV11fphc5p13ksnMZM6dc04ClzlvJnlqkkmekiv1r8wmaSVJW0o6SNJpki6TdJukxyW9KukzSd+af/+V9Kf5x29bTxva0oe+wAAWMIG9oiRwpZKTwOKSdjKCul3Se5L+yAnYCrqrJ7jelQRulAUt0DQ2ZSlJB2aj80ZJnwxQ8HUVCm03GFqheaTKmpLOkPR6jxVQpTBoh4c1hlUzi2RLzwmS3hxiJbiU9Iak4yUtPAzKWU/SdZL+N4KKKCoIHuEVnntX1pV0xxgooagU+/f9ktbpg1aYtowSS9i4P6+VtNDUUsz+kr5Pypg0GJHJfoNUyhxpVkxSQtnKcI0kZNVpWUDSC2lWBCkEJT0nCZl1UgDMlq9sNKQ6t1w4w8wfWyMzSHokKaPxYHxC0owxlXJyUkZjZdjV41+xFLKkpLxF1SJIT/cyVSab/0haIoZS0GwZglRXXy7/jKGQtKuqL3jXYGXX1br8kGZItBUCWbYu6TQeb4Z811obkp5PMyTaDHk2hkJOTAqJphD8KK0LWzW2bK4PVaoPk83PMf31aesbJnTf4MSDGq1gOnkozZLGq8RjsU0naHY+E+fkGwXp3eSZRGwYsuukzCPp6TRTgmcKu6rolt6iZmeRdElSSqVSruwqMnL7okbM33ubsM20TE1cpghl3dMhsx0c9bWqf89iaQ9w9FhQEiNhkOGffR0AyOAKj4eQiE1k2bpYAVzo2SkQnXjnGC9j8O6KasQxdVFONtEUgmKw/K7sgUhsEs79X3MEWIWO2hMe4dUXj7WKpBcLsvCIL+xVUZC/SDopi3Wd1dOdpewfI7pNZht7rCR4dBXSHE5xDExXn+D6okLs3x9K2sezjFkEjBJC/V8qjBQLZxie0H6qJHjxFZanfTO5fOTh1dc/6F2VwFDMoZLYDleVxUwQGRF+H3iIrsLZ9XtoYzlCuItWMWVWi8MqFGFpDgDnb2IBVT2/MMsUQg8tRMmzrWZ63yLp7Syy/P8DVBS4wAluaIAWaAot8HpclpX1ZQ2aQ2E721UpovgeJh8we/EmkXvMtBUkbWG220S8XGqE9mgmtJclMStt6hpWVEsDv209bWhLHwQODGCxhQc2OGZ2cu1+AU97SXqw4eBxQw58Y5lt8kRABGPvPiz5FA6ZMGvgAV7yA6CJTBwowqubIHX1eUXSuVmI5daS5gwnYeAt58o8pdsYWtlVufhpUt+aGba5TRBX9bEJlzdl8AmP2S479S8taZrWFIcDABc4wY1n9GaTBNqV5YH4ttblrY4U4lLYT1k27GvmO4QpgnX/EDNiN8wSg7AKLGcEiVkbCzSC5R+/qUPItKEtfRjtwODDDUy+ceAAl4uOLupJ8Wtd8sf+LogcJ5gXtNaGpLWT8TDKLGIZXCuGQoBx9YCn9ijOGpbKaIV1mVsWRlFQg+CJ2yLmjaYNA4i7Qb5JSqk9KJEZh9BOCoA/TkoJVgoX4FQZJFsrisC5p5JSKpVC1lQnF9lMX6JC6tjTj8ONDXW/MciEs5NLbiXirFfFDQ0u0zqHr/vSbJkyWzBkctdXWZkp87ZilWhdGCFPeszSnJA5CY9zlDyJOMgAWZQVjJN2mS97X6vOTtnPM8Vs6ulpFcO9H13ZgiwtfXjCI7z6FIG4Nsvu3cJXZGn2iDDslQXEEyIwpcxd0ZWl7CxJn+YIycMZ5t9cbnampGUrZIBdjYDC4uCs6Fb9ukx4X5nb1so+XHmI00raOItVIoSozy7bMh7zddAOD/ACT76CTLjX8WvHYPT1DXqXJ6z4+/3MQ4cvOfQyyeUlHW4upazj9izi7fpvaOPiTGiF5pAyu2lfNfBCYHnbhDDPaZTQIF9oTBmSZSTtZq7Puztz+6LgEHyx2rCcgBPcXOEHLdBUp8AzRwBcxyF01YFd2jYEiW3DHvyuzO61hyS8bk0KI42t41aSDjYhRFzxeqsk8izwOtbxqdOHvvlrYoENDnA1KfBG/C6KrHsWa4JvQh8r7LpPPI0IYhdPvOsERD3/g8t34AWe2nhRW7NZVxGu9lg8LzazJ8oVE6058wNgKdrR+NXJ8yjullx8VtX7sQa87SpO9x0z2ogI3DX7iK7eMCwngAVvE0KBwA0N0MIMYPBUCbbJe2TZunRFXBlDhOujKNb967PzzjnZ8nCMmVWbGx851lN85lyKw14/fybiN3W8o82qpg99+a4BC5jABge4wFlGSxd14GtdLh8gwV0IoU8wCdZrXTgM9YmpYaZlo9baMAA4JA2zIPpAexRLr1UoQcUYF/vA2DDSgE2vThC3lbv3ye3Vgw4sG0bhF2lGZoRSdVIA7DKaFQlJf/8dFLJBJ5rIAcXYNszZUIMaKOQWVpnoc2IN/1nmBcOlS1hkrNProIQ0CDzkx5znOOSWyTJcE6blVQ6HPa8JZn4mfeynbHZwY6/vkPB0xmHleB1ezagi0CF/Is73BhFm63G+9ZrbqzE8upxXyA4rOLJsXew0JxePGeEqKAairDPf9hvlJ8EfO2e+IHh3FQKsMZlYObjaBddbQDx/M46oqty81YzLcxR3ZLivzw+ISERGGCuRWV6GwYJ3NcwDs78JvA65SAX/MoY9bDjDfLDkYEfAAhEkvtlgZYjZ3uX9tG0aP60Syp5ctcH3gxvnqgo7DKyvRxtPW6jLswxv13W4pFnzjwyYCZZvZEBiaPEqjSKttn3jZxFg2d/cXHBEzUROFMSZhhTjs7Pdyb2Bifdl+NvU4Q6+x4QtYaInhKnO9hR37lE1gtAbK8J2rMPsjyZ1eFvHPtzC9D3JzsXnQaYueYGnS8IFgIGzrk8d/zt97H+9CixgAhscTTOB+T6QKIpfpa45ycd70Ls6Csm35VptzjBE9jW5QCCIuAE2ggd4gad/Fz7Ueb6rfrcmuQpByHu8cuR741Pngxc9m6g1l5MBoIBNzAwltSCWK3syppo1bSIsXMrCvICC+P9myQ9HSYTlRP1faAL5BCe4+Y+JoQWaSJmGRhf9TeuHLk+dGCdO/A+bRFM+9nww2b0Q6M3BlAvU8JcTueLyqfOONrSlD9tVYAALmCSxggNcxXNCU2GH9Et56h2M8hDBu9qkPPUeKQTLeMpT75FCUp56j5SR8tR7pIyUp94jZaQ89R4po7M89bLzFWb1lKdefnD05amXyTJqXcpTn6gUX556VMH7gGGqxuiW8tTrme19Mo3yziom5alHEWdcIClPPa48o0Ebxzz1aMIbBKBRzlMfhPw6xzEKeeqdC2lqIxiGPPWpLaOEP0kgSSBJIEkgSWCSBP4CPLVwrHMITlEAAAAASUVORK5CYII=;container=0;" vertex="1" parent="1">
          <mxGeometry x="-1120" y="951.5" width="70" height="70" as="geometry" />
        </mxCell>
        <mxCell id="XKiLcq2Avilo9yYhWQPy-34" value="&lt;font style=&quot;font-size: 16px; line-height: 0%;&quot;&gt;NFS Server&lt;/font&gt;" style="text;html=1;align=center;verticalAlign=middle;whiteSpace=wrap;rounded=0;container=0;" vertex="1" parent="1">
          <mxGeometry x="-1115.5" y="1040.5" width="60" height="30" as="geometry" />
        </mxCell>
        <mxCell id="XKiLcq2Avilo9yYhWQPy-35" value="" style="sketch=0;outlineConnect=0;fontColor=#232F3E;gradientColor=none;fillColor=#232F3D;strokeColor=none;dashed=0;verticalLabelPosition=bottom;verticalAlign=top;align=center;html=1;fontSize=12;fontStyle=0;aspect=fixed;pointerEvents=1;shape=mxgraph.aws4.traditional_server;container=0;" vertex="1" parent="1">
          <mxGeometry x="-1277" y="952" width="45" height="78" as="geometry" />
        </mxCell>
        <mxCell id="XKiLcq2Avilo9yYhWQPy-36" value="&lt;font style=&quot;font-size: 16px; line-height: 0%;&quot;&gt;Kafka Server&lt;/font&gt;" style="text;html=1;align=center;verticalAlign=middle;whiteSpace=wrap;rounded=0;container=0;" vertex="1" parent="1">
          <mxGeometry x="-1284.5" y="1042" width="60" height="30" as="geometry" />
        </mxCell>
        <mxCell id="XKiLcq2Avilo9yYhWQPy-37" value="" style="sketch=0;outlineConnect=0;fontColor=#232F3E;gradientColor=none;fillColor=#232F3D;strokeColor=none;dashed=0;verticalLabelPosition=bottom;verticalAlign=top;align=center;html=1;fontSize=12;fontStyle=0;aspect=fixed;pointerEvents=1;shape=mxgraph.aws4.traditional_server;container=0;" vertex="1" parent="1">
          <mxGeometry x="-1277" y="952" width="45" height="78" as="geometry" />
        </mxCell>
        <mxCell id="XKiLcq2Avilo9yYhWQPy-38" value="" style="sketch=0;outlineConnect=0;fontColor=#232F3E;gradientColor=none;fillColor=#232F3D;strokeColor=none;dashed=0;verticalLabelPosition=bottom;verticalAlign=top;align=center;html=1;fontSize=12;fontStyle=0;aspect=fixed;pointerEvents=1;shape=mxgraph.aws4.gear;" vertex="1" parent="1">
          <mxGeometry x="-1209" y="952" width="78" height="78" as="geometry" />
        </mxCell>
        <mxCell id="XKiLcq2Avilo9yYhWQPy-39" value="&lt;font style=&quot;font-size: 16px;&quot;&gt;Scheduler&lt;/font&gt;" style="text;html=1;align=center;verticalAlign=middle;whiteSpace=wrap;rounded=0;container=0;" vertex="1" parent="1">
          <mxGeometry x="-1200" y="1041" width="60" height="30" as="geometry" />
        </mxCell>
        <mxCell id="XKiLcq2Avilo9yYhWQPy-40" value="" style="endArrow=none;dashed=1;html=1;dashPattern=1 3;strokeWidth=2;rounded=0;fontSize=12;startSize=8;endSize=8;curved=1;" edge="1" parent="1">
          <mxGeometry width="50" height="50" relative="1" as="geometry">
            <mxPoint x="-1610" y="1281.5" as="sourcePoint" />
            <mxPoint x="-890" y="1281.5" as="targetPoint" />
          </mxGeometry>
        </mxCell>
        <mxCell id="XKiLcq2Avilo9yYhWQPy-41" value="" style="group" vertex="1" connectable="0" parent="1">
          <mxGeometry x="-1610" y="1121.5" width="240" height="150" as="geometry" />
        </mxCell>
        <mxCell id="XKiLcq2Avilo9yYhWQPy-42" value="" style="rounded=0;whiteSpace=wrap;html=1;dashed=1;" vertex="1" parent="XKiLcq2Avilo9yYhWQPy-41">
          <mxGeometry width="240" height="150" as="geometry" />
        </mxCell>
        <mxCell id="XKiLcq2Avilo9yYhWQPy-43" value="&lt;font style=&quot;font-size: 16px;&quot;&gt;Knative&lt;/font&gt;" style="swimlane;whiteSpace=wrap;html=1;startSize=23;" vertex="1" parent="XKiLcq2Avilo9yYhWQPy-41">
          <mxGeometry x="110" y="5" width="120" height="135" as="geometry" />
        </mxCell>
        <mxCell id="XKiLcq2Avilo9yYhWQPy-44" value="&lt;font style=&quot;font-size: 16px;&quot;&gt;front-end&lt;/font&gt;" style="rounded=1;whiteSpace=wrap;html=1;" vertex="1" parent="XKiLcq2Avilo9yYhWQPy-43">
          <mxGeometry x="5" y="29" width="110" height="30" as="geometry" />
        </mxCell>
        <mxCell id="XKiLcq2Avilo9yYhWQPy-45" value="&lt;font style=&quot;font-size: 16px;&quot;&gt;move-detector&lt;/font&gt;" style="rounded=1;whiteSpace=wrap;html=1;" vertex="1" parent="XKiLcq2Avilo9yYhWQPy-43">
          <mxGeometry x="5" y="64" width="110" height="30" as="geometry" />
        </mxCell>
        <mxCell id="XKiLcq2Avilo9yYhWQPy-46" value="&lt;font style=&quot;font-size: 16px;&quot;&gt;target-detector&lt;/font&gt;" style="rounded=1;whiteSpace=wrap;html=1;" vertex="1" parent="XKiLcq2Avilo9yYhWQPy-43">
          <mxGeometry x="5" y="99" width="110" height="30" as="geometry" />
        </mxCell>
        <mxCell id="XKiLcq2Avilo9yYhWQPy-47" value="&lt;font style=&quot;font-size: 16px;&quot;&gt;Kubelet&lt;/font&gt;" style="rounded=0;whiteSpace=wrap;html=1;" vertex="1" parent="XKiLcq2Avilo9yYhWQPy-41">
          <mxGeometry x="10" y="5" width="90" height="35" as="geometry" />
        </mxCell>
        <mxCell id="XKiLcq2Avilo9yYhWQPy-48" value="&lt;font style=&quot;font-size: 16px; line-height: 20%;&quot;&gt;Kafka Server&lt;/font&gt;" style="rounded=0;whiteSpace=wrap;html=1;" vertex="1" parent="XKiLcq2Avilo9yYhWQPy-41">
          <mxGeometry x="10" y="55" width="90" height="35" as="geometry" />
        </mxCell>
        <mxCell id="XKiLcq2Avilo9yYhWQPy-49" value="&lt;font style=&quot;font-size: 16px;&quot;&gt;NFS Client&lt;/font&gt;" style="rounded=0;whiteSpace=wrap;html=1;" vertex="1" parent="XKiLcq2Avilo9yYhWQPy-41">
          <mxGeometry x="10" y="105" width="90" height="35" as="geometry" />
        </mxCell>
        <mxCell id="XKiLcq2Avilo9yYhWQPy-60" value="&lt;font style=&quot;font-size: 16px;&quot;&gt;&lt;b style=&quot;&quot;&gt;Edge Nodes&lt;/b&gt;&lt;/font&gt;" style="text;html=1;align=center;verticalAlign=middle;whiteSpace=wrap;rounded=0;" vertex="1" parent="1">
          <mxGeometry x="-1790" y="700" width="120" height="30" as="geometry" />
        </mxCell>
        <mxCell id="XKiLcq2Avilo9yYhWQPy-61" value="&lt;font style=&quot;font-size: 16px;&quot;&gt;&lt;b style=&quot;&quot;&gt;Edge Devices&lt;/b&gt;&lt;/font&gt;" style="text;html=1;align=center;verticalAlign=middle;whiteSpace=wrap;rounded=0;" vertex="1" parent="1">
          <mxGeometry x="-1790" y="890" width="120" height="30" as="geometry" />
        </mxCell>
        <mxCell id="XKiLcq2Avilo9yYhWQPy-62" value="" style="shape=filledEdge;curved=0;rounded=0;fixDash=1;endArrow=none;strokeWidth=10;fillColor=#ffffff;edgeStyle=orthogonalEdgeStyle;html=1;" edge="1" parent="1">
          <mxGeometry width="60" height="40" relative="1" as="geometry">
            <mxPoint x="-1330" y="1120" as="sourcePoint" />
            <mxPoint x="-1270" y="1080" as="targetPoint" />
          </mxGeometry>
        </mxCell>
        <mxCell id="XKiLcq2Avilo9yYhWQPy-66" value="" style="group" vertex="1" connectable="0" parent="1">
          <mxGeometry x="-1411" y="455" width="278.75" height="100" as="geometry" />
        </mxCell>
        <mxCell id="XKiLcq2Avilo9yYhWQPy-67" value="" style="group" vertex="1" connectable="0" parent="XKiLcq2Avilo9yYhWQPy-66">
          <mxGeometry x="-9" y="-5" width="278.75" height="100" as="geometry" />
        </mxCell>
        <mxCell id="XKiLcq2Avilo9yYhWQPy-57" value="" style="shape=image;verticalLabelPosition=bottom;labelBackgroundColor=default;verticalAlign=top;aspect=fixed;imageAspect=0;image=data:image/png,iVBORw0KGgoAAAANSUhEUgAAAGQAAABkCAYAAABw4pVUAAAAAXNSR0IArs4c6QAACetJREFUeAHtnQesPUUVxj/EAmIlomLFGoKSmNiwRA02RFSMKERQBJHYS9SgiVhiBzUqhqBiDxoVGwRswYItEkUTA8GCvSHYiBWw3J/OyfsYZvfuvf+5b/d/35zkZvftlJ35vml7zpl5UpOGQEOgIdAQaAg0BBoCDYGGQEOgIdAQaAhURmBnSYdKeq2kt6/p7zWSHi+Juk5aIOJiSf/ZIr/fJWImScpzJf17ixDhDY46P2dqjOwt6Z9Gxp8knSzpdWv6e5ck6hjE/EMSGExGzrTC/WhGxi0mU7LVFeSWkn5s9QaDScg9rVC0mIdOolSbU4iHZXUHi9HFe8fXrDQ3nbWgJ0o6euK/B1qZ4/a2ko7oKDd1om4h3zBSRu8lee94SCrlNST9wgoaY+1Ur08NdCXdWNKlc8r+c0nUEdkviztqL+nqHdeXdEVW0KmSQbmOT+ByufOAcl8uiTqGTKKXdPWOKCRd+zOSPj/x3/tTr4hyc32BpM91lJs6UTeXSfSST1tL+rqXbovef8Xw2PS55G7ZR2DMHVuUi/9Ve9Re0npHuemN0kta7yiTwdNReknrHd2EELKpvaT1jn4yNr2XeO9g7d2kjMCm9JK8d2wlnVUZ9u6nmzKXnGHr7Pbd0U1GhPjXO9hVlZtnqpDWO+bD673kX7VNEk+33nHe/LK0GAmB8w23p9VE5Q2W8Qk1M17zvN5muLkCc5ur/R7L+MIOpdvUlYhjlA+sQssNhtXECYkXtOsG2EOwaIRY6xwC2KrjrIyQ0ztMm1M31Y5RPrAKoldGyMurDYTrnxFYNUImxHMjZIVk3CD5LB8j6UhJNxnwrkbIAJCWiXLwzF30jzb8MAz9TdKz5mQ2KiE7Sjpl5s/0M0mPKxR0V0lfknSBpLsXwvH2+J4k9GS7F8IPkPQTSR+XdM1C+POS61HVD7CZfQO/rT4PmicUyhKPRiXkHtaCSuoVVjkxwUFcLida+AvzQEk44UX6kg3/rxaOb1UIDeURA1eGxCO+yzmWL40BD/932rNfSbqaJ7D7UQl5gBWSlpwL3vEB6CfyQEn+8UlFcvmOpT8wD7Qw3rGHhePwHe8dcmVfS8j1zJmDnu1knWX50rtL0ghJIDkhHzXghhBC/BAm7kjzhXiYrt6AurwVRyXkflZ4vMJzebaF0/VzebeFvzQPlHSuhT+yEI6KO8C7lYXfQRIgD9FlEe/2lpah6LcpX+aRx0jaQRJ1/Ut6zjYM92K05BqVECbtS1Ih2T+Ry10lXZbCISeXw63iDH+5vCmF43eLfSYXWjCE/CAbWvJ4i/79kpRvkM1ekLjnyra9LhmVEApFFwdMH2u9sLS+ru5NPEjb0xPYPa2Vllkig2js99u3p7VaVgvdXl0Sc56TEPdflXSdntxGJ6SnbNt1EI0Bf97Pph74xdleymeYB3xX5VZGSAwXtIyqSrKumqzJ8/dZz8LIV02eZBkzT/iGlWovWbOM+Lj9veGWe8xvU3XR47jqgA+/B0u69jblup6JwQRswCjmGrDrWoktjcJT7AXxonbdAL0Pi6OWRn1OQje49BWghW0QBWYrkUdL8o+vBvoG6H1YgNmjajPCuPhrG7J+M9OsPlnSXpLYsdp+GxjcKWEDRkEUCsiq8y32gMgclQHqiCb9CNxRkmugH9sffbFQbAxBSEl1vlhuWyf2hwy319estms2X1Ez4+0oL1RC70i7c/ngw3aCorFPwCoactUPaicEdUCX7CTpNl2BaS3epYsiGR+cN+xJf+uesRj1BroydE81BdDdJTQA5vqxOeqTlalOhhCCko2DZygoRqFcUBr+Oa3UOPwrF1ocG/IZd1Ey5vLilPcvZwDdKA+U9OEUjgl4XsstJO98hM7KScjv3aCVZzIqIfe1gkNMLs+08FPzwHScU1QWlXcu37L02NdzgcxI76cRoYFmDhxyuh3x3JsEYn9q+WK3v9ms4R1mpgQaUNcKalRCpmrC/YABGoT1XTnZIWQ3S+sH6xD+QQtjd1lJGiEJJDfhuvNEHxERRvwQjG7xHJu+y6cs7C4eYPejEnIvKyAOAbmwYSUqx3ifC0NKhDNf5PJNC+ecqlz8RDt3I9ol+U8NOd0OPyviu7iSkL0x95nNg8ea8wMa3TgZyNNxPyoh10p7tBnLSyZaxnVs7ZhgS1vimIP+IIlJu/ThyflVgP7tDisd9gbUFCWyc6AW+fsgawjRYPyKN02XjEpIFKqrtQwJZ8nat0Lalrzj/ctcmczDHyDIgPzj5pR3ZYTgtBAFeeUyNVqDNLeT9KK0WgPoIYdeglXgVnL8WBoW1tqRccmFZ+mM1zyhO0dw+HI1Yd0fhDBH9HmOVHvpdp7RPulDN3Dbv2Z9GLu/b6TwMfQqSQ+X9KD2uxIGNN5XJ+/4IINV57z5b2G+WAX93UiJl7XrxuhRwgLMWCpXF5R3+CWVXtqedeMCZn0rx6WJwt82Bx6/V/Zit98GBuEL7FiVdHNLE0FCFG4+XOFHyzKwSRkBzAB4NwYpYOdKy3KqBZ662oMDktk30aQfATBC6xCk+GHN/SkHhL7VMj5pQPwW5f8IYGEMQt5SE5QhBqqa75taXtg7+Dr/YVKhsI8Sf+c+6yZ1WJnqZCghqBPwA75uB6LYTPBgKZlZWcWxIaa0f5Ds2G6Af2zJmkg4YzTblXFJqilYQn2fYbR4rhDU5+c8KiGovNkqTEFLewjdgPWyAmK+B7HkWPbelDdKPt/lFFl9N4Vf1LFLN+Iten2zDTvUj5Pi/J+5YFfvklEJub8VvLTpk38LFK2rRJj3whJhvumzRFjkzRVniBDUPJh/hyzNicdu4hB6cjiZc42GwC5f6si70PpiWSzJqIR4DygR4j1gHiFUJBcnZJFduG7Zc9K67j9pL6bXR7yP2HNuUb1HGHqrkjRCEkhuwuU/HQRwQ67PN2SxHsahARxq4Fv1+C8JkR9eiiUZlRDsylHA3P5MYX3TD8NTLj5Wl6xwnAIR+dMbc4lxnSEEW7gLi40hStCSjYPdu/Fe1CCcPxkuRzwvmavj3aMSQiHQAAMc80kurJIggsOYYyz2OPyTrdOSN0dpcwtjOxqCN3acnIDv7NmzncC4G9UUGlosVoKYuNJ7ulaFlGF0QmoCMaW80Nay3TqI4MpXOM59fbIyQvyLs6rTcF9tJhbG/HHv2RB1SNr6XToAJy+yT/xgWE1Yhkbr4FzzJsMQ8ANzcB2qJrSMIIRryc2n2svWJCP/7gKz6mbvL2ekcIoBzg+csNZ+GxiAifcMyMgPrqnS5vj69W1a3mPa/ZVHEMeDrYCsIFcinLLjhhd/cbu/Kin0jJWR4Qzjx4tJF9vIEDf/rRQHTJjAq88ZTkC7bwg0BBoCDYGGQEOgIdAQaAg0BBoCDYE1ReC//UL/G7fOD2oAAAAASUVORK5CYII=;" vertex="1" parent="XKiLcq2Avilo9yYhWQPy-67">
          <mxGeometry width="100" height="100" as="geometry" />
        </mxCell>
        <mxCell id="XKiLcq2Avilo9yYhWQPy-58" value="" style="shape=image;verticalLabelPosition=bottom;labelBackgroundColor=default;verticalAlign=top;aspect=fixed;imageAspect=0;image=data:image/png,iVBORw0KGgoAAAANSUhEUgAAAGQAAABkCAYAAABw4pVUAAAAAXNSR0IArs4c6QAACetJREFUeAHtnQesPUUVxj/EAmIlomLFGoKSmNiwRA02RFSMKERQBJHYS9SgiVhiBzUqhqBiDxoVGwRswYItEkUTA8GCvSHYiBWw3J/OyfsYZvfuvf+5b/d/35zkZvftlJ35vml7zpl5UpOGQEOgIdAQaAg0BBoCDYGGQEOgIdAQaAhURmBnSYdKeq2kt6/p7zWSHi+Juk5aIOJiSf/ZIr/fJWImScpzJf17ixDhDY46P2dqjOwt6Z9Gxp8knSzpdWv6e5ck6hjE/EMSGExGzrTC/WhGxi0mU7LVFeSWkn5s9QaDScg9rVC0mIdOolSbU4iHZXUHi9HFe8fXrDQ3nbWgJ0o6euK/B1qZ4/a2ko7oKDd1om4h3zBSRu8lee94SCrlNST9wgoaY+1Ur08NdCXdWNKlc8r+c0nUEdkviztqL+nqHdeXdEVW0KmSQbmOT+ByufOAcl8uiTqGTKKXdPWOKCRd+zOSPj/x3/tTr4hyc32BpM91lJs6UTeXSfSST1tL+rqXbovef8Xw2PS55G7ZR2DMHVuUi/9Ve9Re0npHuemN0kta7yiTwdNReknrHd2EELKpvaT1jn4yNr2XeO9g7d2kjMCm9JK8d2wlnVUZ9u6nmzKXnGHr7Pbd0U1GhPjXO9hVlZtnqpDWO+bD673kX7VNEk+33nHe/LK0GAmB8w23p9VE5Q2W8Qk1M17zvN5muLkCc5ur/R7L+MIOpdvUlYhjlA+sQssNhtXECYkXtOsG2EOwaIRY6xwC2KrjrIyQ0ztMm1M31Y5RPrAKoldGyMurDYTrnxFYNUImxHMjZIVk3CD5LB8j6UhJNxnwrkbIAJCWiXLwzF30jzb8MAz9TdKz5mQ2KiE7Sjpl5s/0M0mPKxR0V0lfknSBpLsXwvH2+J4k9GS7F8IPkPQTSR+XdM1C+POS61HVD7CZfQO/rT4PmicUyhKPRiXkHtaCSuoVVjkxwUFcLida+AvzQEk44UX6kg3/rxaOb1UIDeURA1eGxCO+yzmWL40BD/932rNfSbqaJ7D7UQl5gBWSlpwL3vEB6CfyQEn+8UlFcvmOpT8wD7Qw3rGHhePwHe8dcmVfS8j1zJmDnu1knWX50rtL0ghJIDkhHzXghhBC/BAm7kjzhXiYrt6AurwVRyXkflZ4vMJzebaF0/VzebeFvzQPlHSuhT+yEI6KO8C7lYXfQRIgD9FlEe/2lpah6LcpX+aRx0jaQRJ1/Ut6zjYM92K05BqVECbtS1Ih2T+Ry10lXZbCISeXw63iDH+5vCmF43eLfSYXWjCE/CAbWvJ4i/79kpRvkM1ekLjnyra9LhmVEApFFwdMH2u9sLS+ru5NPEjb0xPYPa2Vllkig2js99u3p7VaVgvdXl0Sc56TEPdflXSdntxGJ6SnbNt1EI0Bf97Pph74xdleymeYB3xX5VZGSAwXtIyqSrKumqzJ8/dZz8LIV02eZBkzT/iGlWovWbOM+Lj9veGWe8xvU3XR47jqgA+/B0u69jblup6JwQRswCjmGrDrWoktjcJT7AXxonbdAL0Pi6OWRn1OQje49BWghW0QBWYrkUdL8o+vBvoG6H1YgNmjajPCuPhrG7J+M9OsPlnSXpLYsdp+GxjcKWEDRkEUCsiq8y32gMgclQHqiCb9CNxRkmugH9sffbFQbAxBSEl1vlhuWyf2hwy319estms2X1Ez4+0oL1RC70i7c/ngw3aCorFPwCoactUPaicEdUCX7CTpNl2BaS3epYsiGR+cN+xJf+uesRj1BroydE81BdDdJTQA5vqxOeqTlalOhhCCko2DZygoRqFcUBr+Oa3UOPwrF1ocG/IZd1Ey5vLilPcvZwDdKA+U9OEUjgl4XsstJO98hM7KScjv3aCVZzIqIfe1gkNMLs+08FPzwHScU1QWlXcu37L02NdzgcxI76cRoYFmDhxyuh3x3JsEYn9q+WK3v9ms4R1mpgQaUNcKalRCpmrC/YABGoT1XTnZIWQ3S+sH6xD+QQtjd1lJGiEJJDfhuvNEHxERRvwQjG7xHJu+y6cs7C4eYPejEnIvKyAOAbmwYSUqx3ifC0NKhDNf5PJNC+ecqlz8RDt3I9ol+U8NOd0OPyviu7iSkL0x95nNg8ea8wMa3TgZyNNxPyoh10p7tBnLSyZaxnVs7ZhgS1vimIP+IIlJu/ThyflVgP7tDisd9gbUFCWyc6AW+fsgawjRYPyKN02XjEpIFKqrtQwJZ8nat0Lalrzj/ctcmczDHyDIgPzj5pR3ZYTgtBAFeeUyNVqDNLeT9KK0WgPoIYdeglXgVnL8WBoW1tqRccmFZ+mM1zyhO0dw+HI1Yd0fhDBH9HmOVHvpdp7RPulDN3Dbv2Z9GLu/b6TwMfQqSQ+X9KD2uxIGNN5XJ+/4IINV57z5b2G+WAX93UiJl7XrxuhRwgLMWCpXF5R3+CWVXtqedeMCZn0rx6WJwt82Bx6/V/Zit98GBuEL7FiVdHNLE0FCFG4+XOFHyzKwSRkBzAB4NwYpYOdKy3KqBZ662oMDktk30aQfATBC6xCk+GHN/SkHhL7VMj5pQPwW5f8IYGEMQt5SE5QhBqqa75taXtg7+Dr/YVKhsI8Sf+c+6yZ1WJnqZCghqBPwA75uB6LYTPBgKZlZWcWxIaa0f5Ds2G6Af2zJmkg4YzTblXFJqilYQn2fYbR4rhDU5+c8KiGovNkqTEFLewjdgPWyAmK+B7HkWPbelDdKPt/lFFl9N4Vf1LFLN+Iten2zDTvUj5Pi/J+5YFfvklEJub8VvLTpk38LFK2rRJj3whJhvumzRFjkzRVniBDUPJh/hyzNicdu4hB6cjiZc42GwC5f6si70PpiWSzJqIR4DygR4j1gHiFUJBcnZJFduG7Zc9K67j9pL6bXR7yP2HNuUb1HGHqrkjRCEkhuwuU/HQRwQ67PN2SxHsahARxq4Fv1+C8JkR9eiiUZlRDsylHA3P5MYX3TD8NTLj5Wl6xwnAIR+dMbc4lxnSEEW7gLi40hStCSjYPdu/Fe1CCcPxkuRzwvmavj3aMSQiHQAAMc80kurJIggsOYYyz2OPyTrdOSN0dpcwtjOxqCN3acnIDv7NmzncC4G9UUGlosVoKYuNJ7ulaFlGF0QmoCMaW80Nay3TqI4MpXOM59fbIyQvyLs6rTcF9tJhbG/HHv2RB1SNr6XToAJy+yT/xgWE1Yhkbr4FzzJsMQ8ANzcB2qJrSMIIRryc2n2svWJCP/7gKz6mbvL2ekcIoBzg+csNZ+GxiAifcMyMgPrqnS5vj69W1a3mPa/ZVHEMeDrYCsIFcinLLjhhd/cbu/Kin0jJWR4Qzjx4tJF9vIEDf/rRQHTJjAq88ZTkC7bwg0BBoCDYGGQEOgIdAQaAg0BBoCDYE1ReC//UL/G7fOD2oAAAAASUVORK5CYII=;" vertex="1" parent="XKiLcq2Avilo9yYhWQPy-67">
          <mxGeometry x="93.25" y="1.25" width="97.5" height="97.5" as="geometry" />
        </mxCell>
        <mxCell id="XKiLcq2Avilo9yYhWQPy-59" value="" style="shape=image;verticalLabelPosition=bottom;labelBackgroundColor=default;verticalAlign=top;aspect=fixed;imageAspect=0;image=data:image/png,iVBORw0KGgoAAAANSUhEUgAAAGQAAABkCAYAAABw4pVUAAAAAXNSR0IArs4c6QAACetJREFUeAHtnQesPUUVxj/EAmIlomLFGoKSmNiwRA02RFSMKERQBJHYS9SgiVhiBzUqhqBiDxoVGwRswYItEkUTA8GCvSHYiBWw3J/OyfsYZvfuvf+5b/d/35zkZvftlJ35vml7zpl5UpOGQEOgIdAQaAg0BBoCDYGGQEOgIdAQaAhURmBnSYdKeq2kt6/p7zWSHi+Juk5aIOJiSf/ZIr/fJWImScpzJf17ixDhDY46P2dqjOwt6Z9Gxp8knSzpdWv6e5ck6hjE/EMSGExGzrTC/WhGxi0mU7LVFeSWkn5s9QaDScg9rVC0mIdOolSbU4iHZXUHi9HFe8fXrDQ3nbWgJ0o6euK/B1qZ4/a2ko7oKDd1om4h3zBSRu8lee94SCrlNST9wgoaY+1Ur08NdCXdWNKlc8r+c0nUEdkviztqL+nqHdeXdEVW0KmSQbmOT+ByufOAcl8uiTqGTKKXdPWOKCRd+zOSPj/x3/tTr4hyc32BpM91lJs6UTeXSfSST1tL+rqXbovef8Xw2PS55G7ZR2DMHVuUi/9Ve9Re0npHuemN0kta7yiTwdNReknrHd2EELKpvaT1jn4yNr2XeO9g7d2kjMCm9JK8d2wlnVUZ9u6nmzKXnGHr7Pbd0U1GhPjXO9hVlZtnqpDWO+bD673kX7VNEk+33nHe/LK0GAmB8w23p9VE5Q2W8Qk1M17zvN5muLkCc5ur/R7L+MIOpdvUlYhjlA+sQssNhtXECYkXtOsG2EOwaIRY6xwC2KrjrIyQ0ztMm1M31Y5RPrAKoldGyMurDYTrnxFYNUImxHMjZIVk3CD5LB8j6UhJNxnwrkbIAJCWiXLwzF30jzb8MAz9TdKz5mQ2KiE7Sjpl5s/0M0mPKxR0V0lfknSBpLsXwvH2+J4k9GS7F8IPkPQTSR+XdM1C+POS61HVD7CZfQO/rT4PmicUyhKPRiXkHtaCSuoVVjkxwUFcLida+AvzQEk44UX6kg3/rxaOb1UIDeURA1eGxCO+yzmWL40BD/932rNfSbqaJ7D7UQl5gBWSlpwL3vEB6CfyQEn+8UlFcvmOpT8wD7Qw3rGHhePwHe8dcmVfS8j1zJmDnu1knWX50rtL0ghJIDkhHzXghhBC/BAm7kjzhXiYrt6AurwVRyXkflZ4vMJzebaF0/VzebeFvzQPlHSuhT+yEI6KO8C7lYXfQRIgD9FlEe/2lpah6LcpX+aRx0jaQRJ1/Ut6zjYM92K05BqVECbtS1Ih2T+Ry10lXZbCISeXw63iDH+5vCmF43eLfSYXWjCE/CAbWvJ4i/79kpRvkM1ekLjnyra9LhmVEApFFwdMH2u9sLS+ru5NPEjb0xPYPa2Vllkig2js99u3p7VaVgvdXl0Sc56TEPdflXSdntxGJ6SnbNt1EI0Bf97Pph74xdleymeYB3xX5VZGSAwXtIyqSrKumqzJ8/dZz8LIV02eZBkzT/iGlWovWbOM+Lj9veGWe8xvU3XR47jqgA+/B0u69jblup6JwQRswCjmGrDrWoktjcJT7AXxonbdAL0Pi6OWRn1OQje49BWghW0QBWYrkUdL8o+vBvoG6H1YgNmjajPCuPhrG7J+M9OsPlnSXpLYsdp+GxjcKWEDRkEUCsiq8y32gMgclQHqiCb9CNxRkmugH9sffbFQbAxBSEl1vlhuWyf2hwy319estms2X1Ez4+0oL1RC70i7c/ngw3aCorFPwCoactUPaicEdUCX7CTpNl2BaS3epYsiGR+cN+xJf+uesRj1BroydE81BdDdJTQA5vqxOeqTlalOhhCCko2DZygoRqFcUBr+Oa3UOPwrF1ocG/IZd1Ey5vLilPcvZwDdKA+U9OEUjgl4XsstJO98hM7KScjv3aCVZzIqIfe1gkNMLs+08FPzwHScU1QWlXcu37L02NdzgcxI76cRoYFmDhxyuh3x3JsEYn9q+WK3v9ms4R1mpgQaUNcKalRCpmrC/YABGoT1XTnZIWQ3S+sH6xD+QQtjd1lJGiEJJDfhuvNEHxERRvwQjG7xHJu+y6cs7C4eYPejEnIvKyAOAbmwYSUqx3ifC0NKhDNf5PJNC+ecqlz8RDt3I9ol+U8NOd0OPyviu7iSkL0x95nNg8ea8wMa3TgZyNNxPyoh10p7tBnLSyZaxnVs7ZhgS1vimIP+IIlJu/ThyflVgP7tDisd9gbUFCWyc6AW+fsgawjRYPyKN02XjEpIFKqrtQwJZ8nat0Lalrzj/ctcmczDHyDIgPzj5pR3ZYTgtBAFeeUyNVqDNLeT9KK0WgPoIYdeglXgVnL8WBoW1tqRccmFZ+mM1zyhO0dw+HI1Yd0fhDBH9HmOVHvpdp7RPulDN3Dbv2Z9GLu/b6TwMfQqSQ+X9KD2uxIGNN5XJ+/4IINV57z5b2G+WAX93UiJl7XrxuhRwgLMWCpXF5R3+CWVXtqedeMCZn0rx6WJwt82Bx6/V/Zit98GBuEL7FiVdHNLE0FCFG4+XOFHyzKwSRkBzAB4NwYpYOdKy3KqBZ662oMDktk30aQfATBC6xCk+GHN/SkHhL7VMj5pQPwW5f8IYGEMQt5SE5QhBqqa75taXtg7+Dr/YVKhsI8Sf+c+6yZ1WJnqZCghqBPwA75uB6LYTPBgKZlZWcWxIaa0f5Ds2G6Af2zJmkg4YzTblXFJqilYQn2fYbR4rhDU5+c8KiGovNkqTEFLewjdgPWyAmK+B7HkWPbelDdKPt/lFFl9N4Vf1LFLN+Iten2zDTvUj5Pi/J+5YFfvklEJub8VvLTpk38LFK2rRJj3whJhvumzRFjkzRVniBDUPJh/hyzNicdu4hB6cjiZc42GwC5f6si70PpiWSzJqIR4DygR4j1gHiFUJBcnZJFduG7Zc9K67j9pL6bXR7yP2HNuUb1HGHqrkjRCEkhuwuU/HQRwQ67PN2SxHsahARxq4Fv1+C8JkR9eiiUZlRDsylHA3P5MYX3TD8NTLj5Wl6xwnAIR+dMbc4lxnSEEW7gLi40hStCSjYPdu/Fe1CCcPxkuRzwvmavj3aMSQiHQAAMc80kurJIggsOYYyz2OPyTrdOSN0dpcwtjOxqCN3acnIDv7NmzncC4G9UUGlosVoKYuNJ7ulaFlGF0QmoCMaW80Nay3TqI4MpXOM59fbIyQvyLs6rTcF9tJhbG/HHv2RB1SNr6XToAJy+yT/xgWE1Yhkbr4FzzJsMQ8ANzcB2qJrSMIIRryc2n2svWJCP/7gKz6mbvL2ekcIoBzg+csNZ+GxiAifcMyMgPrqnS5vj69W1a3mPa/ZVHEMeDrYCsIFcinLLjhhd/cbu/Kin0jJWR4Qzjx4tJF9vIEDf/rRQHTJjAq88ZTkC7bwg0BBoCDYGGQEOgIdAQaAg0BBoCDYE1ReC//UL/G7fOD2oAAAAASUVORK5CYII=;" vertex="1" parent="XKiLcq2Avilo9yYhWQPy-67">
          <mxGeometry x="185" y="1.25" width="93.75" height="93.75" as="geometry" />
        </mxCell>
        <mxCell id="XKiLcq2Avilo9yYhWQPy-63" value="" style="shape=filledEdge;curved=0;rounded=0;fixDash=1;endArrow=none;strokeWidth=10;fillColor=#B3B3B3;edgeStyle=orthogonalEdgeStyle;html=1;entryX=0.5;entryY=1;entryDx=0;entryDy=0;exitX=0.5;exitY=1;exitDx=0;exitDy=0;strokeColor=#B3B3B3;" edge="1" parent="XKiLcq2Avilo9yYhWQPy-67" source="XKiLcq2Avilo9yYhWQPy-58" target="XKiLcq2Avilo9yYhWQPy-57">
          <mxGeometry width="60" height="40" relative="1" as="geometry">
            <mxPoint x="-119" y="145" as="sourcePoint" />
            <mxPoint x="61" y="89" as="targetPoint" />
            <Array as="points" />
          </mxGeometry>
        </mxCell>
        <mxCell id="XKiLcq2Avilo9yYhWQPy-64" value="" style="shape=filledEdge;curved=0;rounded=0;fixDash=1;endArrow=none;strokeWidth=10;edgeStyle=orthogonalEdgeStyle;html=1;entryX=0.5;entryY=1;entryDx=0;entryDy=0;exitX=0.5;exitY=1;exitDx=0;exitDy=0;strokeColor=#B3B3B3;fillColor=#B3B3B3;" edge="1" parent="XKiLcq2Avilo9yYhWQPy-67" source="XKiLcq2Avilo9yYhWQPy-58" target="XKiLcq2Avilo9yYhWQPy-59">
          <mxGeometry width="60" height="40" relative="1" as="geometry">
            <mxPoint x="152" y="109" as="sourcePoint" />
            <mxPoint x="60" y="110" as="targetPoint" />
            <Array as="points" />
          </mxGeometry>
        </mxCell>
        <mxCell id="XKiLcq2Avilo9yYhWQPy-79" value="" style="shape=flexArrow;endArrow=classic;startArrow=classic;html=1;rounded=0;fillColor=light-dark(#7EA6E0,#1D293B);strokeColor=light-dark(#7EA6E0,#1D293B);" edge="1" parent="1">
          <mxGeometry width="100" height="100" relative="1" as="geometry">
            <mxPoint x="-1460" y="670" as="sourcePoint" />
            <mxPoint x="-1360" y="570" as="targetPoint" />
          </mxGeometry>
        </mxCell>
        <mxCell id="XKiLcq2Avilo9yYhWQPy-81" value="" style="shape=flexArrow;endArrow=classic;startArrow=classic;html=1;rounded=0;fillColor=light-dark(#7EA6E0,#1D293B);strokeColor=light-dark(#7EA6E0,#1D293B);exitX=0.86;exitY=0.085;exitDx=0;exitDy=0;exitPerimeter=0;" edge="1" parent="1">
          <mxGeometry width="100" height="100" relative="1" as="geometry">
            <mxPoint x="-1274.04" y="700" as="sourcePoint" />
            <mxPoint x="-1275.2099999999996" y="570" as="targetPoint" />
          </mxGeometry>
        </mxCell>
        <mxCell id="XKiLcq2Avilo9yYhWQPy-87" value="" style="group" vertex="1" connectable="0" parent="1">
          <mxGeometry x="-1571" y="690" width="661" height="200" as="geometry" />
        </mxCell>
        <mxCell id="XKiLcq2Avilo9yYhWQPy-86" value="" style="shape=image;verticalLabelPosition=bottom;labelBackgroundColor=default;verticalAlign=top;aspect=fixed;imageAspect=0;image=data:image/png,iVBORw0KGgoAAAANSUhEUgAAAGQAAABkCAYAAABw4pVUAAAAAXNSR0IArs4c6QAABi1JREFUeAHtnWloJEUUx9cbUVQ88FjvA1QUPEEQDxA8EVRYxPtCBXHVD4pfVxEvED+Ix+oHFRUlCH5QY7qq4+B6gG4UVFbU6Xo1MRtdUUFX3Uy/qljyJiZOJpPJTHdNT3fPCyyTo6vqvd+/X1V1db3aVav4iwkwASbABJgAE2ACTIAJMAEmwASYABNgAkyACTABJsAEmAATYAJMgAkwASaQCwLrnNv+PT1zeBDhqUKbc+hzvFo/asS5HXJh4DAYIVV8ogTzkNDmY6FwRoJxS/9hLMB8JpR5TCg8bRi4ZOqjc267UNvLBJhPl8JvJ8ji3wVgvhTKXkURlanhZWxM1uLjQmU+SCJEaxmKGlnDk8vIKROfpMKbpMK/W8Gm+xnjUONdmThQpkYEmAfTgV/cbS2tyz7FXViXd0yozANLAa4EOMHftX2mS5OG9zIB9rpMxFiYneHadrSDLW43qewVAvAlCWajjMy0BIylin+UynwuNb4WanulVG7PduVL8buxqH60APwzY0Hi5oGeAAttHpYK/+rODqxLZZ6sfOf2LYUIzU4IFY92ByFB97QQEW3LbqTxZG5qjb8mswF/p+hu9qfQ30ttLkgGoi3gNg+Lna8TCl+XCmc92PB4KVYKQo3jHmD0LEQ/2hRgnih0dNB6lFD4Tz/gDKxOhTcXVhQJ5r6Bges8tiSOOKFwW6XqDi6kKAMczBMD7+4GsuuLKQjglu4c7Dww560OAWgq2h1QKFFGq26PvIH0aU8IeFuhBKEB3SeA/NUVv1MoQQIdH5s/iP66xlChLpQg4+AOK7MgtP5FL9gKIwot4pXuGaRlKk3jZCEEGa26XYIoPkFA0vUjf11Lv6JUAKLU5txQ2WvohZtQ9mLyOTfvYiYm3E70fjsEMyIBt/YLRN7rDVT8kwS7Xmg8aSDRQ/2oALtGgvk+77AytU/hbAj4yljNHZiZMI1nDR2/m6mjLf143tsWymwOFZ7ed1HCyfqRQplNeQeSB/to/SsEc1bfRBmbcntLsNU8OFsUG2iCQ7svvYtCg7dU+H5RQOTJTgFY8S6IBHNvnpwsnC3KXuJNlIp2e5X52SIjcT/0JohUZl1GRvf5fcYAHzwb02G3vxdRZGS+YUHSixlqe0NqQYSqH8NipBeDGNIOztSCSMBbWRBPgoB9Ib0gPH54G9dCZV9ML0hkn+cI8RMhlCmWWpAA8OVsBEFvd2I29vYuUqjx9tSChMo8mlcHi2ZXUJs5IrUgQuPdRXO8s72DiUTKi0wtBlVAb8c6O9h76A5jfULjjV4EoZ3fAvCXYYTo0eevvO6g/y/rqPSDrkcBFljROxHvufWN5H6Fth8Gl7nOxu4bZa/20lW1VkIPNWWG59s3OpVCgL22laO3n8en3GoJ+LNvw8tYX2YHGojInCkB62WEuJJPIoq3ScA/lr1urkvfQJm8me5spD1YjXTigu0CWRZkl37QXT+yye0slDkvVHgHHYRAqW5S4z20HWq06vbz1h31WhFFiihpDsjywtmne+WU6fVSuUMl4Btl38c7L5AAc36mgJM2RnPsAMyb/g+VydEKQGSmqbtKymgg5T6ZcrsGYC+V2jxCkRMASqniQAK+KqJip7iFgLcMBGq/GpUQvz0f+kX7DMFMeF326BfkXuqVgGuzFcLPmVw0cQkid0gvvhbiWpoAZDv4z96ZdhZI5TPZLD0oBSWYDVlECe06pwG4cROA+SJJm9RNlTIymsWXGs/IJEqajsCgrCYJ9vq5s7G6mLVFZprSnisVt2Oz7aX9XirzVpI7tocyX7cbgCliQm0uFMo+t+jwsshMN9adlH2WTi8q3NQ27Z0Sbnb7BNpGPQBeeK+wchncSrl+aW0cuvLhZHx8x0W6LteWFgmkcJaegYYOpi+HKTFSAk4ugppECDCOjhAUNXu5L9uGth7xgztIgvkolSjKfMvdlMdb6P9M3t7S5ChXRWhzP+XFezSHq5onQLOb8Zq9qDELahzf2maKqvC3xroY2DWVTW73+bL8mQEBOqJ1vIanBGDObvyXFVNudQbNchNMgAkwASbABJgAE2ACTIAJMAEmwASYABNgAkyACTABJsAEmAATYAJMgAkwgQET+BemAVBcTdH2WQAAAABJRU5ErkJggg==;" vertex="1" parent="XKiLcq2Avilo9yYhWQPy-87">
          <mxGeometry x="371" y="-90" width="290" height="290" as="geometry" />
        </mxCell>
        <mxCell id="XKiLcq2Avilo9yYhWQPy-68" value="" style="shape=image;verticalLabelPosition=bottom;labelBackgroundColor=default;verticalAlign=top;aspect=fixed;imageAspect=0;image=data:image/png,iVBORw0KGgoAAAANSUhEUgAAAGQAAABkCAYAAABw4pVUAAAAAXNSR0IArs4c6QAABglJREFUeAHtnT2OJEUQhUMg4SFhYKwEJj8SHnsVjoDHOTCwsBAHwMDgZwUIiRtwAgTcABAgfgzAAjal/Xa7q7OyXnVGRkX1VEuj11UV9eJ7Gd09s9UzvWbjb8+Y2Vtm9rWZ/W5m/+3s628z+87M3jGz58cv19gOr5rZtzsbQOsB87OZ3R+7ZOPcXzGzX25oGAyqZHpp3LKNcX7WzL65wWEwlO/N7LkxS+fv+tTDp/UXlWF8YGYv+Lcb7njv4feO9yp5vjKzp4d3d2jwdgX+fQffrS0+rOR6d2uopf5vmNm/FXCe6reoby4tylbHXzOzv+7YMMoD7B8zKz9Nprt9eQeHwTP+o3TTMLOf7vBASvZ0Nx4taDpAZyByos72/XaAof2OuR3IiaajBQxNB+gMRE7U2b7fDjC03zG3AznRdLSAoekAnYHIiTrb99sBhvY75nYgJ5qOFjA0HaAzEDlRZ/t+O8DQfsfcDuRE09EChrYAy5s85Yrwjwn/MVmYCtvSG1HkRFt5NzkGGDoHUYLu4ZpXYWwNhZzoXN7N9gOGzoHU3ivhnGz6+VyIyjO7UbrNoelizlHs6ZpX6xqVmnduHYbvVwHVuuHAMw1UPrVups343SqgWjeeuN5B5VPr6l0C9qqAal0AcrWFyqfWVZtE7FQB1boI5loPlU+tq/UI2acCqnUh0JUmKp9aV2kRs0sFVOtiqC+7qHxq3WWHoD0qoFoXhH3RRuVT6y4aRO1QAdW6KO5pH5VPrZv6h22rgGpdGPikkcqn1k3s4zZVQLUujvy8k8qn1p27B26pgHv6G5HfGuun5m1YjD2kApYLdtParNufNZZsytwo3eaQCngMJGg+6kCOl6xkA1EHF4R90UblU+suGkTtUAHVuijuaR+VT62b+odtq4BqXRj4pJHKp9ZN7OM2VUC1Lo78vJPKp9aduwduqYBqXSD6WSuVT607M4/cUAHVukj2014qn1p36h16XwVU60LhT5qpfGrdiXXsXRVQrYulf9JN5VPrnjgH31MB1bpg/MftVD617rFx9B0VUK2L5qefyqfW4RuuKmDG3+edsrP9Q2MVqUEbpdscAgydozh+lXRuZZz3Mwh0zn5Pv2z9+lyIylsIjdJtDjEItEVRhlIuw2d8+SpMha01jJKNnGgr7ybHAEM3gQhsSk40sLXWCjBUO2u/VeRE0yUBDE0H6AxETtTZvt8OMLTfMbcDOdF0tICh6QCdgciJOtv32wGG9jvmdiAnmo4WMDQdoDMQOVFn+347wNB+x9wO5ETT0QKGpgN0BiIn6mzfbwcY2u+Y24GcaDpawNB0gM5A5ESd7fvtAEP7HXM7kBNNRwsYmg7QGYicqLN9vx1gaL9jbgdyouloAUMjAF80s4/N7M9HXw/MrPyvDBE3cqIRPVf1AAxddfIVxWUYv1belyj7yrHRN3Kio/ut9gcMXW2w8oTyzKDXVCM+aXracyX++PJowPIyNe3J9h/j4170Dmi5rgWLga47e311ayDlj4JG38iJju632h8wdLXByhM+bTxDPlnpdU05OdFrPIaeAxg6tNmjn6bmvqm/PLp55cEQ0HJdCwaBrjv7uury01T5Bl6+Z5Sv8syIGEahJSd6XYKBZwGGDmyVwpqcaAqoUwjA0NNjt3ifnGi6jICh6QCdgciJOtv32wGG9jvmdiAnmo4WMDQdoDMQOVFn+347wNB+x9wO5ETT0QKGRgAeV3sbq8wg0Eapy6Hjau/CMjIIdKG8+/BxtXdhCRkEulDefbh1cfG42rvBpYTWQI6rvRsM5Ljau/Aiw0sVulDefbi8d35c7W0sI4NAG6Vuh46rvY2lZBBoo/QmDpETTRcKMDQdoDMQOVFn+347wNB+x9wO5ETT0QKGpgN0BiIn6mzfbwcY2u+Y24GcaDpawNB0gM5A5ESd7fvtAEP7HXM7kBNNRwsYmg7QGYicqLN9vx1gaL9jbgdyouloAUPTAToDkRN1tu+3y/hRSyzWaG198lz/yl7psKdPivMeUPl8rXS3vXxSnPcwyn/zvfRhZ5sNK/MnxXkPQv3kuVXD+B/Pyocw4ZPfAgAAAABJRU5ErkJggg==;" vertex="1" parent="XKiLcq2Avilo9yYhWQPy-87">
          <mxGeometry x="300" width="100" height="100" as="geometry" />
        </mxCell>
        <mxCell id="XKiLcq2Avilo9yYhWQPy-69" value="" style="shape=image;verticalLabelPosition=bottom;labelBackgroundColor=default;verticalAlign=top;aspect=fixed;imageAspect=0;image=data:image/png,iVBORw0KGgoAAAANSUhEUgAAAGQAAABkCAYAAABw4pVUAAAAAXNSR0IArs4c6QAABglJREFUeAHtnT2OJEUQhUMg4SFhYKwEJj8SHnsVjoDHOTCwsBAHwMDgZwUIiRtwAgTcABAgfgzAAjal/Xa7q7OyXnVGRkX1VEuj11UV9eJ7Gd09s9UzvWbjb8+Y2Vtm9rWZ/W5m/+3s628z+87M3jGz58cv19gOr5rZtzsbQOsB87OZ3R+7ZOPcXzGzX25oGAyqZHpp3LKNcX7WzL65wWEwlO/N7LkxS+fv+tTDp/UXlWF8YGYv+Lcb7njv4feO9yp5vjKzp4d3d2jwdgX+fQffrS0+rOR6d2uopf5vmNm/FXCe6reoby4tylbHXzOzv+7YMMoD7B8zKz9Nprt9eQeHwTP+o3TTMLOf7vBASvZ0Nx4taDpAZyByos72/XaAof2OuR3IiaajBQxNB+gMRE7U2b7fDjC03zG3AznRdLSAoekAnYHIiTrb99sBhvY75nYgJ5qOFjA0HaAzEDlRZ/t+O8DQfsfcDuRE09EChrYAy5s85Yrwjwn/MVmYCtvSG1HkRFt5NzkGGDoHUYLu4ZpXYWwNhZzoXN7N9gOGzoHU3ivhnGz6+VyIyjO7UbrNoelizlHs6ZpX6xqVmnduHYbvVwHVuuHAMw1UPrVups343SqgWjeeuN5B5VPr6l0C9qqAal0AcrWFyqfWVZtE7FQB1boI5loPlU+tq/UI2acCqnUh0JUmKp9aV2kRs0sFVOtiqC+7qHxq3WWHoD0qoFoXhH3RRuVT6y4aRO1QAdW6KO5pH5VPrZv6h22rgGpdGPikkcqn1k3s4zZVQLUujvy8k8qn1p27B26pgHv6G5HfGuun5m1YjD2kApYLdtParNufNZZsytwo3eaQCngMJGg+6kCOl6xkA1EHF4R90UblU+suGkTtUAHVuijuaR+VT62b+odtq4BqXRj4pJHKp9ZN7OM2VUC1Lo78vJPKp9aduwduqYBqXSD6WSuVT607M4/cUAHVukj2014qn1p36h16XwVU60LhT5qpfGrdiXXsXRVQrYulf9JN5VPrnjgH31MB1bpg/MftVD617rFx9B0VUK2L5qefyqfW4RuuKmDG3+edsrP9Q2MVqUEbpdscAgydozh+lXRuZZz3Mwh0zn5Pv2z9+lyIylsIjdJtDjEItEVRhlIuw2d8+SpMha01jJKNnGgr7ybHAEM3gQhsSk40sLXWCjBUO2u/VeRE0yUBDE0H6AxETtTZvt8OMLTfMbcDOdF0tICh6QCdgciJOtv32wGG9jvmdiAnmo4WMDQdoDMQOVFn+347wNB+x9wO5ETT0QKGpgN0BiIn6mzfbwcY2u+Y24GcaDpawNB0gM5A5ESd7fvtAEP7HXM7kBNNRwsYmg7QGYicqLN9vx1gaL9jbgdyouloAUMjAF80s4/N7M9HXw/MrPyvDBE3cqIRPVf1AAxddfIVxWUYv1belyj7yrHRN3Kio/ut9gcMXW2w8oTyzKDXVCM+aXracyX++PJowPIyNe3J9h/j4170Dmi5rgWLga47e311ayDlj4JG38iJju632h8wdLXByhM+bTxDPlnpdU05OdFrPIaeAxg6tNmjn6bmvqm/PLp55cEQ0HJdCwaBrjv7uury01T5Bl6+Z5Sv8syIGEahJSd6XYKBZwGGDmyVwpqcaAqoUwjA0NNjt3ifnGi6jICh6QCdgciJOtv32wGG9jvmdiAnmo4WMDQdoDMQOVFn+347wNB+x9wO5ETT0QKGRgAeV3sbq8wg0Eapy6Hjau/CMjIIdKG8+/BxtXdhCRkEulDefbh1cfG42rvBpYTWQI6rvRsM5Ljau/Aiw0sVulDefbi8d35c7W0sI4NAG6Vuh46rvY2lZBBoo/QmDpETTRcKMDQdoDMQOVFn+347wNB+x9wO5ETT0QKGpgN0BiIn6mzfbwcY2u+Y24GcaDpawNB0gM5A5ESd7fvtAEP7HXM7kBNNRwsYmg7QGYicqLN9vx1gaL9jbgdyouloAUPTAToDkRN1tu+3y/hRSyzWaG198lz/yl7psKdPivMeUPl8rXS3vXxSnPcwyn/zvfRhZ5sNK/MnxXkPQv3kuVXD+B/Pyocw4ZPfAgAAAABJRU5ErkJggg==;" vertex="1" parent="XKiLcq2Avilo9yYhWQPy-87">
          <mxGeometry x="100" width="100" height="100" as="geometry" />
        </mxCell>
        <mxCell id="XKiLcq2Avilo9yYhWQPy-70" value="" style="shape=image;verticalLabelPosition=bottom;labelBackgroundColor=default;verticalAlign=top;aspect=fixed;imageAspect=0;image=data:image/png,iVBORw0KGgoAAAANSUhEUgAAAGQAAABkCAYAAABw4pVUAAAAAXNSR0IArs4c6QAABglJREFUeAHtnT2OJEUQhUMg4SFhYKwEJj8SHnsVjoDHOTCwsBAHwMDgZwUIiRtwAgTcABAgfgzAAjal/Xa7q7OyXnVGRkX1VEuj11UV9eJ7Gd09s9UzvWbjb8+Y2Vtm9rWZ/W5m/+3s628z+87M3jGz58cv19gOr5rZtzsbQOsB87OZ3R+7ZOPcXzGzX25oGAyqZHpp3LKNcX7WzL65wWEwlO/N7LkxS+fv+tTDp/UXlWF8YGYv+Lcb7njv4feO9yp5vjKzp4d3d2jwdgX+fQffrS0+rOR6d2uopf5vmNm/FXCe6reoby4tylbHXzOzv+7YMMoD7B8zKz9Nprt9eQeHwTP+o3TTMLOf7vBASvZ0Nx4taDpAZyByos72/XaAof2OuR3IiaajBQxNB+gMRE7U2b7fDjC03zG3AznRdLSAoekAnYHIiTrb99sBhvY75nYgJ5qOFjA0HaAzEDlRZ/t+O8DQfsfcDuRE09EChrYAy5s85Yrwjwn/MVmYCtvSG1HkRFt5NzkGGDoHUYLu4ZpXYWwNhZzoXN7N9gOGzoHU3ivhnGz6+VyIyjO7UbrNoelizlHs6ZpX6xqVmnduHYbvVwHVuuHAMw1UPrVups343SqgWjeeuN5B5VPr6l0C9qqAal0AcrWFyqfWVZtE7FQB1boI5loPlU+tq/UI2acCqnUh0JUmKp9aV2kRs0sFVOtiqC+7qHxq3WWHoD0qoFoXhH3RRuVT6y4aRO1QAdW6KO5pH5VPrZv6h22rgGpdGPikkcqn1k3s4zZVQLUujvy8k8qn1p27B26pgHv6G5HfGuun5m1YjD2kApYLdtParNufNZZsytwo3eaQCngMJGg+6kCOl6xkA1EHF4R90UblU+suGkTtUAHVuijuaR+VT62b+odtq4BqXRj4pJHKp9ZN7OM2VUC1Lo78vJPKp9aduwduqYBqXSD6WSuVT607M4/cUAHVukj2014qn1p36h16XwVU60LhT5qpfGrdiXXsXRVQrYulf9JN5VPrnjgH31MB1bpg/MftVD617rFx9B0VUK2L5qefyqfW4RuuKmDG3+edsrP9Q2MVqUEbpdscAgydozh+lXRuZZz3Mwh0zn5Pv2z9+lyIylsIjdJtDjEItEVRhlIuw2d8+SpMha01jJKNnGgr7ybHAEM3gQhsSk40sLXWCjBUO2u/VeRE0yUBDE0H6AxETtTZvt8OMLTfMbcDOdF0tICh6QCdgciJOtv32wGG9jvmdiAnmo4WMDQdoDMQOVFn+347wNB+x9wO5ETT0QKGpgN0BiIn6mzfbwcY2u+Y24GcaDpawNB0gM5A5ESd7fvtAEP7HXM7kBNNRwsYmg7QGYicqLN9vx1gaL9jbgdyouloAUMjAF80s4/N7M9HXw/MrPyvDBE3cqIRPVf1AAxddfIVxWUYv1belyj7yrHRN3Kio/ut9gcMXW2w8oTyzKDXVCM+aXracyX++PJowPIyNe3J9h/j4170Dmi5rgWLga47e311ayDlj4JG38iJju632h8wdLXByhM+bTxDPlnpdU05OdFrPIaeAxg6tNmjn6bmvqm/PLp55cEQ0HJdCwaBrjv7uury01T5Bl6+Z5Sv8syIGEahJSd6XYKBZwGGDmyVwpqcaAqoUwjA0NNjt3ifnGi6jICh6QCdgciJOtv32wGG9jvmdiAnmo4WMDQdoDMQOVFn+347wNB+x9wO5ETT0QKGRgAeV3sbq8wg0Eapy6Hjau/CMjIIdKG8+/BxtXdhCRkEulDefbh1cfG42rvBpYTWQI6rvRsM5Ljau/Aiw0sVulDefbi8d35c7W0sI4NAG6Vuh46rvY2lZBBoo/QmDpETTRcKMDQdoDMQOVFn+347wNB+x9wO5ETT0QKGpgN0BiIn6mzfbwcY2u+Y24GcaDpawNB0gM5A5ESd7fvtAEP7HXM7kBNNRwsYmg7QGYicqLN9vx1gaL9jbgdyouloAUPTAToDkRN1tu+3y/hRSyzWaG198lz/yl7psKdPivMeUPl8rXS3vXxSnPcwyn/zvfRhZ5sNK/MnxXkPQv3kuVXD+B/Pyocw4ZPfAgAAAABJRU5ErkJggg==;" vertex="1" parent="XKiLcq2Avilo9yYhWQPy-87">
          <mxGeometry x="400" width="100" height="100" as="geometry" />
        </mxCell>
        <mxCell id="XKiLcq2Avilo9yYhWQPy-71" value="" style="shape=image;verticalLabelPosition=bottom;labelBackgroundColor=default;verticalAlign=top;aspect=fixed;imageAspect=0;image=data:image/png,iVBORw0KGgoAAAANSUhEUgAAAGQAAABkCAYAAABw4pVUAAAAAXNSR0IArs4c6QAABglJREFUeAHtnT2OJEUQhUMg4SFhYKwEJj8SHnsVjoDHOTCwsBAHwMDgZwUIiRtwAgTcABAgfgzAAjal/Xa7q7OyXnVGRkX1VEuj11UV9eJ7Gd09s9UzvWbjb8+Y2Vtm9rWZ/W5m/+3s628z+87M3jGz58cv19gOr5rZtzsbQOsB87OZ3R+7ZOPcXzGzX25oGAyqZHpp3LKNcX7WzL65wWEwlO/N7LkxS+fv+tTDp/UXlWF8YGYv+Lcb7njv4feO9yp5vjKzp4d3d2jwdgX+fQffrS0+rOR6d2uopf5vmNm/FXCe6reoby4tylbHXzOzv+7YMMoD7B8zKz9Nprt9eQeHwTP+o3TTMLOf7vBASvZ0Nx4taDpAZyByos72/XaAof2OuR3IiaajBQxNB+gMRE7U2b7fDjC03zG3AznRdLSAoekAnYHIiTrb99sBhvY75nYgJ5qOFjA0HaAzEDlRZ/t+O8DQfsfcDuRE09EChrYAy5s85Yrwjwn/MVmYCtvSG1HkRFt5NzkGGDoHUYLu4ZpXYWwNhZzoXN7N9gOGzoHU3ivhnGz6+VyIyjO7UbrNoelizlHs6ZpX6xqVmnduHYbvVwHVuuHAMw1UPrVups343SqgWjeeuN5B5VPr6l0C9qqAal0AcrWFyqfWVZtE7FQB1boI5loPlU+tq/UI2acCqnUh0JUmKp9aV2kRs0sFVOtiqC+7qHxq3WWHoD0qoFoXhH3RRuVT6y4aRO1QAdW6KO5pH5VPrZv6h22rgGpdGPikkcqn1k3s4zZVQLUujvy8k8qn1p27B26pgHv6G5HfGuun5m1YjD2kApYLdtParNufNZZsytwo3eaQCngMJGg+6kCOl6xkA1EHF4R90UblU+suGkTtUAHVuijuaR+VT62b+odtq4BqXRj4pJHKp9ZN7OM2VUC1Lo78vJPKp9aduwduqYBqXSD6WSuVT607M4/cUAHVukj2014qn1p36h16XwVU60LhT5qpfGrdiXXsXRVQrYulf9JN5VPrnjgH31MB1bpg/MftVD617rFx9B0VUK2L5qefyqfW4RuuKmDG3+edsrP9Q2MVqUEbpdscAgydozh+lXRuZZz3Mwh0zn5Pv2z9+lyIylsIjdJtDjEItEVRhlIuw2d8+SpMha01jJKNnGgr7ybHAEM3gQhsSk40sLXWCjBUO2u/VeRE0yUBDE0H6AxETtTZvt8OMLTfMbcDOdF0tICh6QCdgciJOtv32wGG9jvmdiAnmo4WMDQdoDMQOVFn+347wNB+x9wO5ETT0QKGpgN0BiIn6mzfbwcY2u+Y24GcaDpawNB0gM5A5ESd7fvtAEP7HXM7kBNNRwsYmg7QGYicqLN9vx1gaL9jbgdyouloAUMjAF80s4/N7M9HXw/MrPyvDBE3cqIRPVf1AAxddfIVxWUYv1belyj7yrHRN3Kio/ut9gcMXW2w8oTyzKDXVCM+aXracyX++PJowPIyNe3J9h/j4170Dmi5rgWLga47e311ayDlj4JG38iJju632h8wdLXByhM+bTxDPlnpdU05OdFrPIaeAxg6tNmjn6bmvqm/PLp55cEQ0HJdCwaBrjv7uury01T5Bl6+Z5Sv8syIGEahJSd6XYKBZwGGDmyVwpqcaAqoUwjA0NNjt3ifnGi6jICh6QCdgciJOtv32wGG9jvmdiAnmo4WMDQdoDMQOVFn+347wNB+x9wO5ETT0QKGRgAeV3sbq8wg0Eapy6Hjau/CMjIIdKG8+/BxtXdhCRkEulDefbh1cfG42rvBpYTWQI6rvRsM5Ljau/Aiw0sVulDefbi8d35c7W0sI4NAG6Vuh46rvY2lZBBoo/QmDpETTRcKMDQdoDMQOVFn+347wNB+x9wO5ETT0QKGpgN0BiIn6mzfbwcY2u+Y24GcaDpawNB0gM5A5ESd7fvtAEP7HXM7kBNNRwsYmg7QGYicqLN9vx1gaL9jbgdyouloAUPTAToDkRN1tu+3y/hRSyzWaG198lz/yl7psKdPivMeUPl8rXS3vXxSnPcwyn/zvfRhZ5sNK/MnxXkPQv3kuVXD+B/Pyocw4ZPfAgAAAABJRU5ErkJggg==;" vertex="1" parent="XKiLcq2Avilo9yYhWQPy-87">
          <mxGeometry x="500" width="100" height="100" as="geometry" />
        </mxCell>
        <mxCell id="XKiLcq2Avilo9yYhWQPy-72" value="" style="shape=image;verticalLabelPosition=bottom;labelBackgroundColor=default;verticalAlign=top;aspect=fixed;imageAspect=0;image=data:image/png,iVBORw0KGgoAAAANSUhEUgAAAGQAAABkCAYAAABw4pVUAAAAAXNSR0IArs4c6QAABglJREFUeAHtnT2OJEUQhUMg4SFhYKwEJj8SHnsVjoDHOTCwsBAHwMDgZwUIiRtwAgTcABAgfgzAAjal/Xa7q7OyXnVGRkX1VEuj11UV9eJ7Gd09s9UzvWbjb8+Y2Vtm9rWZ/W5m/+3s628z+87M3jGz58cv19gOr5rZtzsbQOsB87OZ3R+7ZOPcXzGzX25oGAyqZHpp3LKNcX7WzL65wWEwlO/N7LkxS+fv+tTDp/UXlWF8YGYv+Lcb7njv4feO9yp5vjKzp4d3d2jwdgX+fQffrS0+rOR6d2uopf5vmNm/FXCe6reoby4tylbHXzOzv+7YMMoD7B8zKz9Nprt9eQeHwTP+o3TTMLOf7vBASvZ0Nx4taDpAZyByos72/XaAof2OuR3IiaajBQxNB+gMRE7U2b7fDjC03zG3AznRdLSAoekAnYHIiTrb99sBhvY75nYgJ5qOFjA0HaAzEDlRZ/t+O8DQfsfcDuRE09EChrYAy5s85Yrwjwn/MVmYCtvSG1HkRFt5NzkGGDoHUYLu4ZpXYWwNhZzoXN7N9gOGzoHU3ivhnGz6+VyIyjO7UbrNoelizlHs6ZpX6xqVmnduHYbvVwHVuuHAMw1UPrVups343SqgWjeeuN5B5VPr6l0C9qqAal0AcrWFyqfWVZtE7FQB1boI5loPlU+tq/UI2acCqnUh0JUmKp9aV2kRs0sFVOtiqC+7qHxq3WWHoD0qoFoXhH3RRuVT6y4aRO1QAdW6KO5pH5VPrZv6h22rgGpdGPikkcqn1k3s4zZVQLUujvy8k8qn1p27B26pgHv6G5HfGuun5m1YjD2kApYLdtParNufNZZsytwo3eaQCngMJGg+6kCOl6xkA1EHF4R90UblU+suGkTtUAHVuijuaR+VT62b+odtq4BqXRj4pJHKp9ZN7OM2VUC1Lo78vJPKp9aduwduqYBqXSD6WSuVT607M4/cUAHVukj2014qn1p36h16XwVU60LhT5qpfGrdiXXsXRVQrYulf9JN5VPrnjgH31MB1bpg/MftVD617rFx9B0VUK2L5qefyqfW4RuuKmDG3+edsrP9Q2MVqUEbpdscAgydozh+lXRuZZz3Mwh0zn5Pv2z9+lyIylsIjdJtDjEItEVRhlIuw2d8+SpMha01jJKNnGgr7ybHAEM3gQhsSk40sLXWCjBUO2u/VeRE0yUBDE0H6AxETtTZvt8OMLTfMbcDOdF0tICh6QCdgciJOtv32wGG9jvmdiAnmo4WMDQdoDMQOVFn+347wNB+x9wO5ETT0QKGpgN0BiIn6mzfbwcY2u+Y24GcaDpawNB0gM5A5ESd7fvtAEP7HXM7kBNNRwsYmg7QGYicqLN9vx1gaL9jbgdyouloAUMjAF80s4/N7M9HXw/MrPyvDBE3cqIRPVf1AAxddfIVxWUYv1belyj7yrHRN3Kio/ut9gcMXW2w8oTyzKDXVCM+aXracyX++PJowPIyNe3J9h/j4170Dmi5rgWLga47e311ayDlj4JG38iJju632h8wdLXByhM+bTxDPlnpdU05OdFrPIaeAxg6tNmjn6bmvqm/PLp55cEQ0HJdCwaBrjv7uury01T5Bl6+Z5Sv8syIGEahJSd6XYKBZwGGDmyVwpqcaAqoUwjA0NNjt3ifnGi6jICh6QCdgciJOtv32wGG9jvmdiAnmo4WMDQdoDMQOVFn+347wNB+x9wO5ETT0QKGRgAeV3sbq8wg0Eapy6Hjau/CMjIIdKG8+/BxtXdhCRkEulDefbh1cfG42rvBpYTWQI6rvRsM5Ljau/Aiw0sVulDefbi8d35c7W0sI4NAG6Vuh46rvY2lZBBoo/QmDpETTRcKMDQdoDMQOVFn+347wNB+x9wO5ETT0QKGpgN0BiIn6mzfbwcY2u+Y24GcaDpawNB0gM5A5ESd7fvtAEP7HXM7kBNNRwsYmg7QGYicqLN9vx1gaL9jbgdyouloAUPTAToDkRN1tu+3y/hRSyzWaG198lz/yl7psKdPivMeUPl8rXS3vXxSnPcwyn/zvfRhZ5sNK/MnxXkPQv3kuVXD+B/Pyocw4ZPfAgAAAABJRU5ErkJggg==;" vertex="1" parent="XKiLcq2Avilo9yYhWQPy-87">
          <mxGeometry width="100" height="100" as="geometry" />
        </mxCell>
        <mxCell id="XKiLcq2Avilo9yYhWQPy-73" value="" style="shape=image;verticalLabelPosition=bottom;labelBackgroundColor=default;verticalAlign=top;aspect=fixed;imageAspect=0;image=data:image/png,iVBORw0KGgoAAAANSUhEUgAAAGQAAABkCAYAAABw4pVUAAAAAXNSR0IArs4c6QAABglJREFUeAHtnT2OJEUQhUMg4SFhYKwEJj8SHnsVjoDHOTCwsBAHwMDgZwUIiRtwAgTcABAgfgzAAjal/Xa7q7OyXnVGRkX1VEuj11UV9eJ7Gd09s9UzvWbjb8+Y2Vtm9rWZ/W5m/+3s628z+87M3jGz58cv19gOr5rZtzsbQOsB87OZ3R+7ZOPcXzGzX25oGAyqZHpp3LKNcX7WzL65wWEwlO/N7LkxS+fv+tTDp/UXlWF8YGYv+Lcb7njv4feO9yp5vjKzp4d3d2jwdgX+fQffrS0+rOR6d2uopf5vmNm/FXCe6reoby4tylbHXzOzv+7YMMoD7B8zKz9Nprt9eQeHwTP+o3TTMLOf7vBASvZ0Nx4taDpAZyByos72/XaAof2OuR3IiaajBQxNB+gMRE7U2b7fDjC03zG3AznRdLSAoekAnYHIiTrb99sBhvY75nYgJ5qOFjA0HaAzEDlRZ/t+O8DQfsfcDuRE09EChrYAy5s85Yrwjwn/MVmYCtvSG1HkRFt5NzkGGDoHUYLu4ZpXYWwNhZzoXN7N9gOGzoHU3ivhnGz6+VyIyjO7UbrNoelizlHs6ZpX6xqVmnduHYbvVwHVuuHAMw1UPrVups343SqgWjeeuN5B5VPr6l0C9qqAal0AcrWFyqfWVZtE7FQB1boI5loPlU+tq/UI2acCqnUh0JUmKp9aV2kRs0sFVOtiqC+7qHxq3WWHoD0qoFoXhH3RRuVT6y4aRO1QAdW6KO5pH5VPrZv6h22rgGpdGPikkcqn1k3s4zZVQLUujvy8k8qn1p27B26pgHv6G5HfGuun5m1YjD2kApYLdtParNufNZZsytwo3eaQCngMJGg+6kCOl6xkA1EHF4R90UblU+suGkTtUAHVuijuaR+VT62b+odtq4BqXRj4pJHKp9ZN7OM2VUC1Lo78vJPKp9aduwduqYBqXSD6WSuVT607M4/cUAHVukj2014qn1p36h16XwVU60LhT5qpfGrdiXXsXRVQrYulf9JN5VPrnjgH31MB1bpg/MftVD617rFx9B0VUK2L5qefyqfW4RuuKmDG3+edsrP9Q2MVqUEbpdscAgydozh+lXRuZZz3Mwh0zn5Pv2z9+lyIylsIjdJtDjEItEVRhlIuw2d8+SpMha01jJKNnGgr7ybHAEM3gQhsSk40sLXWCjBUO2u/VeRE0yUBDE0H6AxETtTZvt8OMLTfMbcDOdF0tICh6QCdgciJOtv32wGG9jvmdiAnmo4WMDQdoDMQOVFn+347wNB+x9wO5ETT0QKGpgN0BiIn6mzfbwcY2u+Y24GcaDpawNB0gM5A5ESd7fvtAEP7HXM7kBNNRwsYmg7QGYicqLN9vx1gaL9jbgdyouloAUMjAF80s4/N7M9HXw/MrPyvDBE3cqIRPVf1AAxddfIVxWUYv1belyj7yrHRN3Kio/ut9gcMXW2w8oTyzKDXVCM+aXracyX++PJowPIyNe3J9h/j4170Dmi5rgWLga47e311ayDlj4JG38iJju632h8wdLXByhM+bTxDPlnpdU05OdFrPIaeAxg6tNmjn6bmvqm/PLp55cEQ0HJdCwaBrjv7uury01T5Bl6+Z5Sv8syIGEahJSd6XYKBZwGGDmyVwpqcaAqoUwjA0NNjt3ifnGi6jICh6QCdgciJOtv32wGG9jvmdiAnmo4WMDQdoDMQOVFn+347wNB+x9wO5ETT0QKGRgAeV3sbq8wg0Eapy6Hjau/CMjIIdKG8+/BxtXdhCRkEulDefbh1cfG42rvBpYTWQI6rvRsM5Ljau/Aiw0sVulDefbi8d35c7W0sI4NAG6Vuh46rvY2lZBBoo/QmDpETTRcKMDQdoDMQOVFn+347wNB+x9wO5ETT0QKGpgN0BiIn6mzfbwcY2u+Y24GcaDpawNB0gM5A5ESd7fvtAEP7HXM7kBNNRwsYmg7QGYicqLN9vx1gaL9jbgdyouloAUPTAToDkRN1tu+3y/hRSyzWaG198lz/yl7psKdPivMeUPl8rXS3vXxSnPcwyn/zvfRhZ5sNK/MnxXkPQv3kuVXD+B/Pyocw4ZPfAgAAAABJRU5ErkJggg==;" vertex="1" parent="XKiLcq2Avilo9yYhWQPy-87">
          <mxGeometry x="200" width="100" height="100" as="geometry" />
        </mxCell>
        <mxCell id="XKiLcq2Avilo9yYhWQPy-82" value="" style="shape=flexArrow;endArrow=classic;startArrow=classic;html=1;rounded=0;fillColor=light-dark(#7EA6E0,#1D293B);strokeColor=light-dark(#7EA6E0,#1D293B);" edge="1" parent="XKiLcq2Avilo9yYhWQPy-87">
          <mxGeometry width="100" height="100" relative="1" as="geometry">
            <mxPoint x="471" y="-20" as="sourcePoint" />
            <mxPoint x="371" y="-120" as="targetPoint" />
          </mxGeometry>
        </mxCell>
      </root>
    </mxGraphModel>
  </diagram>
</mxfile>
